<svg id="Layer_1" data-name="Layer 1" xmlns="http://www.w3.org/2000/svg" viewBox="0 0 1920 1080"><defs><style>.cls-1{fill:#f9f9fa;}.cls-2{opacity:0.25;}.cls-3{fill:#333;}.cls-4{fill:#434343;}.cls-5{fill:#656666;}</style></defs><title>RHD_universal_code_block</title><rect class="cls-1" width="1920" height="1080"/><g class="cls-2"><rect class="cls-3" x="49.51" y="92.55" width="37.89" height="37.89"/><rect class="cls-3" x="87.4" y="92.55" width="37.89" height="37.89"/><rect class="cls-4" x="125.29" y="92.55" width="37.89" height="37.89"/><rect class="cls-4" x="163.19" y="92.55" width="37.89" height="37.89"/><rect class="cls-5" x="201.08" y="92.55" width="37.89" height="37.89"/><rect class="cls-3" x="238.98" y="92.55" width="37.89" height="37.89"/><rect class="cls-3" x="276.87" y="92.55" width="37.89" height="37.89"/><rect class="cls-4" x="314.76" y="92.55" width="37.89" height="37.89"/><rect class="cls-4" x="352.66" y="92.55" width="37.89" height="37.89"/><rect class="cls-5" x="390.55" y="92.55" width="37.89" height="37.89"/><rect class="cls-3" x="428.45" y="92.55" width="37.89" height="37.89"/><rect class="cls-3" x="466.34" y="92.55" width="37.89" height="37.89"/><rect class="cls-4" x="504.23" y="92.55" width="37.89" height="37.89"/><rect class="cls-4" x="542.13" y="92.55" width="37.89" height="37.89"/><rect class="cls-3" x="608.14" y="92.55" width="37.89" height="37.89"/><rect class="cls-3" x="646.03" y="92.55" width="37.89" height="37.89"/><rect class="cls-4" x="683.92" y="92.55" width="37.89" height="37.89"/><rect class="cls-4" x="721.82" y="92.55" width="37.89" height="37.89"/><rect class="cls-5" x="759.71" y="92.55" width="37.89" height="37.89"/><rect class="cls-3" x="797.61" y="92.55" width="37.89" height="37.89"/><rect class="cls-3" x="835.5" y="92.55" width="37.89" height="37.89"/><rect class="cls-4" x="873.39" y="92.55" width="37.89" height="37.89"/><rect class="cls-4" x="911.29" y="92.55" width="37.89" height="37.89"/><rect class="cls-5" x="949.18" y="92.55" width="37.89" height="37.89"/><rect class="cls-3" x="987.08" y="92.55" width="37.89" height="37.89"/><rect class="cls-3" x="1024.97" y="92.55" width="37.89" height="37.89"/><rect class="cls-4" x="1062.86" y="92.55" width="37.89" height="37.89"/><rect class="cls-4" x="1100.76" y="92.55" width="37.89" height="37.89"/><rect class="cls-5" x="1138.65" y="92.55" width="37.89" height="37.89"/><rect class="cls-3" x="1205.27" y="92.55" width="37.89" height="37.89"/><rect class="cls-4" x="1243.17" y="92.55" width="37.89" height="37.89"/><rect class="cls-4" x="1281.06" y="92.55" width="37.89" height="37.89"/><rect class="cls-5" x="1318.96" y="92.55" width="37.89" height="37.89"/><rect class="cls-3" x="1356.85" y="92.55" width="37.89" height="37.89"/><rect class="cls-3" x="1394.74" y="92.55" width="37.89" height="37.89"/><rect class="cls-4" x="1432.64" y="92.55" width="37.89" height="37.89"/><rect class="cls-4" x="1470.53" y="92.55" width="37.89" height="37.89"/><rect class="cls-3" x="49.51" y="158.48" width="37.89" height="37.89"/><rect class="cls-3" x="87.4" y="158.48" width="37.89" height="37.89"/><rect class="cls-3" x="49.51" y="224.4" width="37.89" height="37.89"/><rect class="cls-3" x="87.4" y="224.4" width="37.89" height="37.89"/><rect class="cls-4" x="125.29" y="224.4" width="37.89" height="37.89"/><rect class="cls-4" x="125.29" y="158.48" width="37.89" height="37.89"/><rect class="cls-5" x="163.19" y="158.48" width="37.89" height="37.89"/><rect class="cls-5" x="201.08" y="158.48" width="37.89" height="37.89"/><rect class="cls-4" x="163.19" y="224.4" width="37.89" height="37.89"/><rect class="cls-3" x="238.98" y="158.48" width="37.89" height="37.89"/><rect class="cls-3" x="276.87" y="158.48" width="37.89" height="37.89"/><rect class="cls-3" x="229.2" y="224.4" width="37.89" height="37.89"/><rect class="cls-3" x="267.09" y="224.4" width="37.89" height="37.89"/><rect class="cls-4" x="314.76" y="158.48" width="37.89" height="37.89"/><rect class="cls-5" x="352.66" y="158.48" width="37.89" height="37.89"/><rect class="cls-5" x="390.55" y="158.48" width="37.89" height="37.89"/><rect class="cls-4" x="333.1" y="224.4" width="37.89" height="37.89"/><rect class="cls-5" x="370.99" y="224.4" width="37.89" height="37.89"/><rect class="cls-3" x="428.45" y="158.48" width="37.89" height="37.89"/><rect class="cls-3" x="466.34" y="158.48" width="37.89" height="37.89"/><rect class="cls-3" x="408.89" y="224.4" width="37.89" height="37.89"/><rect class="cls-3" x="446.78" y="224.4" width="37.89" height="37.89"/><rect class="cls-4" x="484.67" y="224.4" width="37.89" height="37.89"/><rect class="cls-4" x="504.23" y="158.48" width="37.89" height="37.89"/><rect class="cls-5" x="542.13" y="158.48" width="37.89" height="37.89"/><rect class="cls-5" x="580.02" y="158.48" width="37.89" height="37.89"/><rect class="cls-4" x="522.57" y="224.4" width="37.89" height="37.89"/><rect class="cls-5" x="560.46" y="224.4" width="37.89" height="37.89"/><rect class="cls-3" x="617.92" y="158.48" width="37.89" height="37.89"/><rect class="cls-3" x="655.81" y="158.48" width="37.89" height="37.89"/><rect class="cls-3" x="598.36" y="224.4" width="37.89" height="37.89"/><rect class="cls-3" x="636.25" y="224.4" width="37.89" height="37.89"/><rect class="cls-4" x="674.14" y="224.4" width="37.89" height="37.89"/><rect class="cls-4" x="693.7" y="158.48" width="37.89" height="37.89"/><rect class="cls-5" x="731.6" y="158.48" width="37.89" height="37.89"/><rect class="cls-5" x="769.49" y="158.48" width="37.89" height="37.89"/><rect class="cls-4" x="712.04" y="224.4" width="37.89" height="37.89"/><rect class="cls-5" x="749.93" y="224.4" width="37.89" height="37.89"/><rect class="cls-3" x="807.39" y="158.48" width="37.89" height="37.89"/><rect class="cls-3" x="845.28" y="158.48" width="37.89" height="37.89"/><rect class="cls-3" x="787.83" y="224.4" width="37.89" height="37.89"/><rect class="cls-3" x="825.72" y="224.4" width="37.89" height="37.89"/><rect class="cls-4" x="863.61" y="224.4" width="37.89" height="37.89"/><rect class="cls-4" x="883.17" y="158.48" width="37.89" height="37.89"/><rect class="cls-5" x="949.18" y="158.48" width="37.89" height="37.89"/><rect class="cls-4" x="901.51" y="224.4" width="37.89" height="37.89"/><rect class="cls-5" x="939.4" y="224.4" width="37.89" height="37.89"/><rect class="cls-3" x="987.08" y="158.48" width="37.89" height="37.89"/><rect class="cls-3" x="1024.97" y="158.48" width="37.89" height="37.89"/><rect class="cls-3" x="977.3" y="224.4" width="37.89" height="37.89"/><rect class="cls-3" x="1015.19" y="224.4" width="37.89" height="37.89"/><rect class="cls-4" x="1053.08" y="224.4" width="37.89" height="37.89"/><rect class="cls-4" x="1062.86" y="158.48" width="37.89" height="37.89"/><rect class="cls-5" x="1100.76" y="158.48" width="37.89" height="37.89"/><rect class="cls-5" x="1138.65" y="158.48" width="37.89" height="37.89"/><rect class="cls-4" x="1090.98" y="224.4" width="37.89" height="37.89"/><rect class="cls-5" x="1128.87" y="224.4" width="37.89" height="37.89"/><rect class="cls-3" x="1176.55" y="158.48" width="37.89" height="37.89"/><rect class="cls-3" x="1214.44" y="158.48" width="37.89" height="37.89"/><rect class="cls-3" x="1166.77" y="224.4" width="37.89" height="37.89"/><rect class="cls-3" x="1204.66" y="224.4" width="37.89" height="37.89"/><rect class="cls-4" x="1242.55" y="224.4" width="37.89" height="37.89"/><rect class="cls-4" x="1280.45" y="224.4" width="37.89" height="37.89"/><rect class="cls-5" x="1318.34" y="224.4" width="37.89" height="37.89"/><rect class="cls-3" x="49.51" y="356.25" width="37.89" height="37.89"/><rect class="cls-3" x="87.4" y="356.25" width="37.89" height="37.89"/><rect class="cls-4" x="125.29" y="356.25" width="37.89" height="37.89"/><rect class="cls-4" x="163.19" y="356.25" width="37.89" height="37.89"/><rect class="cls-5" x="201.08" y="356.25" width="37.89" height="37.89"/><rect class="cls-3" x="238.98" y="356.25" width="37.89" height="37.89"/><rect class="cls-3" x="276.87" y="356.25" width="37.89" height="37.89"/><rect class="cls-4" x="314.76" y="356.25" width="37.89" height="37.89"/><rect class="cls-4" x="352.66" y="356.25" width="37.89" height="37.89"/><rect class="cls-5" x="390.55" y="356.25" width="37.89" height="37.89"/><rect class="cls-3" x="428.45" y="356.25" width="37.89" height="37.89"/><rect class="cls-3" x="466.34" y="356.25" width="37.89" height="37.89"/><rect class="cls-4" x="504.23" y="356.25" width="37.89" height="37.89"/><rect class="cls-4" x="542.13" y="356.25" width="37.89" height="37.89"/><rect class="cls-5" x="580.02" y="356.25" width="37.89" height="37.89"/><rect class="cls-3" x="617.92" y="356.25" width="37.89" height="37.89"/><rect class="cls-3" x="655.81" y="356.25" width="37.89" height="37.89"/><rect class="cls-4" x="693.7" y="356.25" width="37.89" height="37.89"/><rect class="cls-4" x="731.6" y="356.25" width="37.89" height="37.89"/><rect class="cls-5" x="769.49" y="356.25" width="37.89" height="37.89"/><rect class="cls-3" x="49.51" y="422.17" width="37.89" height="37.89"/><rect class="cls-3" x="87.4" y="422.17" width="37.89" height="37.89"/><rect class="cls-3" x="49.51" y="488.1" width="37.89" height="37.89"/><rect class="cls-3" x="87.4" y="488.1" width="37.89" height="37.89"/><rect class="cls-4" x="125.29" y="488.1" width="37.89" height="37.89"/><rect class="cls-4" x="125.29" y="422.17" width="37.89" height="37.89"/><rect class="cls-5" x="163.19" y="422.17" width="37.89" height="37.89"/><rect class="cls-5" x="201.08" y="422.17" width="37.89" height="37.89"/><rect class="cls-4" x="163.19" y="488.1" width="37.89" height="37.89"/><rect class="cls-5" x="201.08" y="488.1" width="37.89" height="37.89"/><rect class="cls-3" x="238.98" y="422.17" width="37.89" height="37.89"/><rect class="cls-3" x="276.87" y="422.17" width="37.89" height="37.89"/><rect class="cls-3" x="238.98" y="488.1" width="37.89" height="37.89"/><rect class="cls-3" x="276.87" y="488.1" width="37.89" height="37.89"/><rect class="cls-4" x="314.76" y="488.1" width="37.89" height="37.89"/><rect class="cls-5" x="342.88" y="422.17" width="37.89" height="37.89"/><rect class="cls-5" x="380.77" y="422.17" width="37.89" height="37.89"/><rect class="cls-4" x="352.66" y="488.1" width="37.89" height="37.89"/><rect class="cls-3" x="418.67" y="422.17" width="37.89" height="37.89"/><rect class="cls-3" x="456.56" y="422.17" width="37.89" height="37.89"/><rect class="cls-3" x="418.67" y="488.1" width="37.89" height="37.89"/><rect class="cls-3" x="456.56" y="488.1" width="37.89" height="37.89"/><rect class="cls-4" x="494.45" y="488.1" width="37.89" height="37.89"/><rect class="cls-4" x="494.45" y="422.17" width="37.89" height="37.89"/><rect class="cls-5" x="532.35" y="422.17" width="37.89" height="37.89"/><rect class="cls-5" x="570.24" y="422.17" width="37.89" height="37.89"/><rect class="cls-4" x="532.35" y="488.1" width="37.89" height="37.89"/><rect class="cls-5" x="570.24" y="488.1" width="37.89" height="37.89"/><rect class="cls-3" x="608.14" y="422.17" width="37.89" height="37.89"/><rect class="cls-3" x="646.03" y="422.17" width="37.89" height="37.89"/><rect class="cls-3" x="608.14" y="488.1" width="37.89" height="37.89"/><rect class="cls-3" x="646.03" y="488.1" width="37.89" height="37.89"/><rect class="cls-4" x="683.92" y="488.1" width="37.89" height="37.89"/><rect class="cls-4" x="683.92" y="422.17" width="37.89" height="37.89"/><rect class="cls-5" x="721.82" y="422.17" width="37.89" height="37.89"/><rect class="cls-5" x="759.71" y="422.17" width="37.89" height="37.89"/><rect class="cls-4" x="721.82" y="488.1" width="37.89" height="37.89"/><rect class="cls-5" x="759.71" y="488.1" width="37.89" height="37.89"/><rect class="cls-3" x="797.61" y="422.17" width="37.89" height="37.89"/><rect class="cls-3" x="835.5" y="422.17" width="37.89" height="37.89"/><rect class="cls-3" x="797.61" y="488.1" width="37.89" height="37.89"/><rect class="cls-3" x="835.5" y="488.1" width="37.89" height="37.89"/><rect class="cls-4" x="873.39" y="488.1" width="37.89" height="37.89"/><rect class="cls-4" x="873.39" y="422.17" width="37.89" height="37.89"/><rect class="cls-5" x="911.29" y="422.17" width="37.89" height="37.89"/><rect class="cls-4" x="911.29" y="488.1" width="37.89" height="37.89"/><rect class="cls-5" x="949.18" y="488.1" width="37.89" height="37.89"/><rect class="cls-3" x="973.03" y="422.17" width="37.89" height="37.89"/><rect class="cls-3" x="1010.92" y="422.17" width="37.89" height="37.89"/><rect class="cls-3" x="987.08" y="488.1" width="37.89" height="37.89"/><rect class="cls-3" x="1024.97" y="488.1" width="37.89" height="37.89"/><rect class="cls-4" x="1062.86" y="488.1" width="37.89" height="37.89"/><rect class="cls-4" x="1048.81" y="422.17" width="37.89" height="37.89"/><rect class="cls-5" x="1086.71" y="422.17" width="37.89" height="37.89"/><rect class="cls-5" x="1124.6" y="422.17" width="37.89" height="37.89"/><rect class="cls-4" x="1100.76" y="488.1" width="37.89" height="37.89"/><rect class="cls-5" x="1138.65" y="488.1" width="37.89" height="37.89"/><rect class="cls-3" x="1162.5" y="422.17" width="37.89" height="37.89"/><rect class="cls-3" x="1200.39" y="422.17" width="37.89" height="37.89"/><rect class="cls-3" x="1204.66" y="488.1" width="37.89" height="37.89"/><rect class="cls-4" x="1242.55" y="488.1" width="37.89" height="37.89"/><rect class="cls-4" x="1238.28" y="422.17" width="37.89" height="37.89"/><rect class="cls-5" x="1276.18" y="422.17" width="37.89" height="37.89"/><rect class="cls-5" x="1314.07" y="422.17" width="37.89" height="37.89"/><rect class="cls-4" x="1280.45" y="488.1" width="37.89" height="37.89"/><rect class="cls-5" x="1318.34" y="488.1" width="37.89" height="37.89"/><rect class="cls-3" x="1351.97" y="422.17" width="37.89" height="37.89"/><rect class="cls-3" x="1389.86" y="422.17" width="37.89" height="37.89"/><rect class="cls-4" x="1427.75" y="422.17" width="37.89" height="37.89"/><rect class="cls-3" x="49.51" y="554.02" width="37.89" height="37.89"/><rect class="cls-3" x="87.4" y="554.02" width="37.89" height="37.89"/><rect class="cls-3" x="49.51" y="619.94" width="37.89" height="37.89"/><rect class="cls-3" x="87.4" y="619.94" width="37.89" height="37.89"/><rect class="cls-4" x="125.29" y="619.94" width="37.89" height="37.89"/><rect class="cls-4" x="125.29" y="554.02" width="37.89" height="37.89"/><rect class="cls-5" x="163.19" y="554.02" width="37.89" height="37.89"/><rect class="cls-5" x="201.08" y="554.02" width="37.89" height="37.89"/><rect class="cls-4" x="163.19" y="619.94" width="37.89" height="37.89"/><rect class="cls-5" x="201.08" y="619.94" width="37.89" height="37.89"/><rect class="cls-3" x="238.98" y="554.02" width="37.89" height="37.89"/><rect class="cls-3" x="238.98" y="619.94" width="37.89" height="37.89"/><rect class="cls-3" x="276.87" y="619.94" width="37.89" height="37.89"/><rect class="cls-4" x="314.76" y="619.94" width="37.89" height="37.89"/><rect class="cls-4" x="304.98" y="554.02" width="37.89" height="37.89"/><rect class="cls-5" x="342.88" y="554.02" width="37.89" height="37.89"/><rect class="cls-5" x="380.77" y="554.02" width="37.89" height="37.89"/><rect class="cls-5" x="380.77" y="619.94" width="37.89" height="37.89"/><rect class="cls-3" x="418.67" y="554.02" width="37.89" height="37.89"/><rect class="cls-3" x="456.56" y="554.02" width="37.89" height="37.89"/><rect class="cls-3" x="418.67" y="619.94" width="37.89" height="37.89"/><rect class="cls-3" x="456.56" y="619.94" width="37.89" height="37.89"/><rect class="cls-4" x="494.45" y="619.94" width="37.89" height="37.89"/><rect class="cls-4" x="494.45" y="554.02" width="37.89" height="37.89"/><rect class="cls-5" x="532.35" y="554.02" width="37.89" height="37.89"/><rect class="cls-5" x="570.24" y="554.02" width="37.89" height="37.89"/><rect class="cls-4" x="532.35" y="619.94" width="37.89" height="37.89"/><rect class="cls-5" x="570.24" y="619.94" width="37.89" height="37.89"/><rect class="cls-3" x="608.14" y="554.02" width="37.89" height="37.89"/><rect class="cls-3" x="646.03" y="554.02" width="37.89" height="37.89"/><rect class="cls-3" x="608.14" y="619.94" width="37.89" height="37.89"/><rect class="cls-3" x="646.03" y="619.94" width="37.89" height="37.89"/><rect class="cls-4" x="683.92" y="619.94" width="37.89" height="37.89"/><rect class="cls-4" x="683.92" y="554.02" width="37.89" height="37.89"/><rect class="cls-5" x="721.82" y="554.02" width="37.89" height="37.89"/><rect class="cls-5" x="759.71" y="554.02" width="37.89" height="37.89"/><rect class="cls-4" x="721.82" y="619.94" width="37.89" height="37.89"/><rect class="cls-5" x="759.71" y="619.94" width="37.89" height="37.89"/><rect class="cls-3" x="797.61" y="554.02" width="37.89" height="37.89"/><rect class="cls-3" x="835.5" y="554.02" width="37.89" height="37.89"/><rect class="cls-3" x="797.61" y="619.94" width="37.89" height="37.89"/><rect class="cls-3" x="835.5" y="619.94" width="37.89" height="37.89"/><rect class="cls-4" x="873.39" y="619.94" width="37.89" height="37.89"/><rect class="cls-4" x="873.39" y="554.02" width="37.89" height="37.89"/><rect class="cls-5" x="911.29" y="554.02" width="37.89" height="37.89"/><rect class="cls-5" x="949.18" y="554.02" width="37.89" height="37.89"/><rect class="cls-4" x="911.29" y="619.94" width="37.89" height="37.89"/><rect class="cls-5" x="949.18" y="619.94" width="37.89" height="37.89"/><rect class="cls-3" x="987.08" y="554.02" width="37.89" height="37.89"/><rect class="cls-3" x="1024.97" y="554.02" width="37.89" height="37.89"/><rect class="cls-3" x="987.08" y="619.94" width="37.89" height="37.89"/><rect class="cls-3" x="1024.97" y="619.94" width="37.89" height="37.89"/><rect class="cls-4" x="1062.86" y="554.02" width="37.89" height="37.89"/><rect class="cls-5" x="1100.76" y="554.02" width="37.89" height="37.89"/><rect class="cls-5" x="1138.65" y="554.02" width="37.89" height="37.89"/><rect class="cls-3" x="1176.55" y="554.02" width="37.89" height="37.89"/><rect class="cls-3" x="1214.44" y="554.02" width="37.89" height="37.89"/><rect class="cls-4" x="1252.33" y="554.02" width="37.89" height="37.89"/><rect class="cls-5" x="1290.23" y="554.02" width="37.89" height="37.89"/><rect class="cls-5" x="1328.12" y="554.02" width="37.89" height="37.89"/><rect class="cls-3" x="1366.02" y="554.02" width="37.89" height="37.89"/><rect class="cls-3" x="1403.91" y="554.02" width="37.89" height="37.89"/><rect class="cls-4" x="1441.81" y="554.02" width="37.89" height="37.89"/><rect class="cls-5" x="1479.7" y="554.02" width="37.89" height="37.89"/><rect class="cls-5" x="1517.59" y="554.02" width="37.89" height="37.89"/><rect class="cls-3" x="1555.49" y="554.02" width="37.89" height="37.89"/><rect class="cls-3" x="1593.38" y="554.02" width="37.89" height="37.89"/><rect class="cls-4" x="1631.28" y="554.02" width="37.89" height="37.89"/><rect class="cls-5" x="1669.17" y="554.02" width="37.89" height="37.89"/><rect class="cls-3" x="49.51" y="26.63" width="37.89" height="37.89"/><rect class="cls-3" x="87.4" y="26.63" width="37.89" height="37.89"/><rect class="cls-4" x="125.29" y="26.63" width="37.89" height="37.89"/><rect class="cls-5" x="163.19" y="26.63" width="37.89" height="37.89"/><rect class="cls-5" x="201.08" y="26.63" width="37.89" height="37.89"/><rect class="cls-3" x="238.98" y="26.63" width="37.89" height="37.89"/><rect class="cls-4" x="304.98" y="26.63" width="37.89" height="37.89"/><rect class="cls-5" x="342.88" y="26.63" width="37.89" height="37.89"/><rect class="cls-5" x="380.77" y="26.63" width="37.89" height="37.89"/><rect class="cls-3" x="418.67" y="26.63" width="37.89" height="37.89"/><rect class="cls-3" x="456.56" y="26.63" width="37.89" height="37.89"/><rect class="cls-4" x="494.45" y="26.63" width="37.89" height="37.89"/><rect class="cls-5" x="532.35" y="26.63" width="37.89" height="37.89"/><rect class="cls-5" x="570.24" y="26.63" width="37.89" height="37.89"/><rect class="cls-3" x="608.14" y="26.63" width="37.89" height="37.89"/><rect class="cls-3" x="646.03" y="26.63" width="37.89" height="37.89"/><rect class="cls-4" x="683.92" y="26.63" width="37.89" height="37.89"/><rect class="cls-5" x="721.82" y="26.63" width="37.89" height="37.89"/><rect class="cls-5" x="759.71" y="26.63" width="37.89" height="37.89"/><rect class="cls-3" x="797.61" y="26.63" width="37.89" height="37.89"/><rect class="cls-3" x="835.5" y="26.63" width="37.89" height="37.89"/><rect class="cls-4" x="873.39" y="26.63" width="37.89" height="37.89"/><rect class="cls-5" x="911.29" y="26.63" width="37.89" height="37.89"/><rect class="cls-5" x="949.18" y="26.63" width="37.89" height="37.89"/><rect class="cls-3" x="49.51" y="685.87" width="37.89" height="37.89"/><rect class="cls-3" x="87.4" y="685.87" width="37.89" height="37.89"/><rect class="cls-3" x="49.51" y="751.79" width="37.89" height="37.89"/><rect class="cls-3" x="87.4" y="751.79" width="37.89" height="37.89"/><rect class="cls-4" x="125.29" y="751.79" width="37.89" height="37.89"/><rect class="cls-4" x="125.29" y="685.87" width="37.89" height="37.89"/><rect class="cls-5" x="163.19" y="685.87" width="37.89" height="37.89"/><rect class="cls-5" x="201.08" y="685.87" width="37.89" height="37.89"/><rect class="cls-4" x="163.19" y="751.79" width="37.89" height="37.89"/><rect class="cls-3" x="238.98" y="685.87" width="37.89" height="37.89"/><rect class="cls-3" x="276.87" y="685.87" width="37.89" height="37.89"/><rect class="cls-3" x="229.2" y="751.79" width="37.89" height="37.89"/><rect class="cls-3" x="267.09" y="751.79" width="37.89" height="37.89"/><rect class="cls-4" x="304.98" y="751.79" width="37.89" height="37.89"/><rect class="cls-4" x="314.76" y="685.87" width="37.89" height="37.89"/><rect class="cls-5" x="352.66" y="685.87" width="37.89" height="37.89"/><rect class="cls-5" x="390.55" y="685.87" width="37.89" height="37.89"/><rect class="cls-4" x="342.88" y="751.79" width="37.89" height="37.89"/><rect class="cls-5" x="380.77" y="751.79" width="37.89" height="37.89"/><rect class="cls-3" x="428.45" y="685.87" width="37.89" height="37.89"/><rect class="cls-3" x="466.34" y="685.87" width="37.89" height="37.89"/><rect class="cls-3" x="418.67" y="751.79" width="37.89" height="37.89"/><rect class="cls-3" x="456.56" y="751.79" width="37.89" height="37.89"/><rect class="cls-4" x="494.45" y="751.79" width="37.89" height="37.89"/><rect class="cls-4" x="504.23" y="685.87" width="37.89" height="37.89"/><rect class="cls-5" x="542.13" y="685.87" width="37.89" height="37.89"/><rect class="cls-5" x="580.02" y="685.87" width="37.89" height="37.89"/><rect class="cls-4" x="532.35" y="751.79" width="37.89" height="37.89"/><rect class="cls-5" x="570.24" y="751.79" width="37.89" height="37.89"/><rect class="cls-3" x="617.92" y="685.87" width="37.89" height="37.89"/><rect class="cls-3" x="655.81" y="685.87" width="37.89" height="37.89"/><rect class="cls-3" x="608.14" y="751.79" width="37.89" height="37.89"/><rect class="cls-3" x="646.03" y="751.79" width="37.89" height="37.89"/><rect class="cls-4" x="683.92" y="751.79" width="37.89" height="37.89"/><rect class="cls-4" x="693.7" y="685.87" width="37.89" height="37.89"/><rect class="cls-5" x="731.6" y="685.87" width="37.89" height="37.89"/><rect class="cls-5" x="769.49" y="685.87" width="37.89" height="37.89"/><rect class="cls-4" x="721.82" y="751.79" width="37.89" height="37.89"/><rect class="cls-3" x="807.39" y="685.87" width="37.89" height="37.89"/><rect class="cls-3" x="845.28" y="685.87" width="37.89" height="37.89"/><rect class="cls-4" x="883.17" y="685.87" width="37.89" height="37.89"/><rect class="cls-5" x="921.07" y="685.87" width="37.89" height="37.89"/><rect class="cls-5" x="958.96" y="685.87" width="37.89" height="37.89"/><rect class="cls-3" x="996.86" y="685.87" width="37.89" height="37.89"/><rect class="cls-3" x="1034.75" y="685.87" width="37.89" height="37.89"/><rect class="cls-4" x="1072.65" y="685.87" width="37.89" height="37.89"/><rect class="cls-5" x="1110.54" y="685.87" width="37.89" height="37.89"/><rect class="cls-5" x="1148.43" y="685.87" width="37.89" height="37.89"/><rect class="cls-3" x="1186.33" y="685.87" width="37.89" height="37.89"/><rect class="cls-3" x="49.51" y="817.72" width="37.89" height="37.89"/><rect class="cls-3" x="87.4" y="817.72" width="37.89" height="37.89"/><rect class="cls-3" x="49.51" y="883.64" width="37.89" height="37.89"/><rect class="cls-3" x="87.4" y="883.64" width="37.89" height="37.89"/><rect class="cls-4" x="125.29" y="883.64" width="37.89" height="37.89"/><rect class="cls-4" x="125.29" y="817.72" width="37.89" height="37.89"/><rect class="cls-5" x="163.19" y="817.72" width="37.89" height="37.89"/><rect class="cls-5" x="201.08" y="817.72" width="37.89" height="37.89"/><rect class="cls-4" x="163.19" y="883.64" width="37.89" height="37.89"/><rect class="cls-5" x="201.08" y="883.64" width="37.89" height="37.89"/><rect class="cls-3" x="238.98" y="817.72" width="37.89" height="37.89"/><rect class="cls-3" x="276.87" y="817.72" width="37.89" height="37.89"/><rect class="cls-3" x="238.98" y="883.64" width="37.89" height="37.89"/><rect class="cls-3" x="276.87" y="883.64" width="37.89" height="37.89"/><rect class="cls-4" x="314.76" y="883.64" width="37.89" height="37.89"/><rect class="cls-4" x="314.76" y="817.72" width="37.89" height="37.89"/><rect class="cls-5" x="352.66" y="817.72" width="37.89" height="37.89"/><rect class="cls-5" x="390.55" y="817.72" width="37.89" height="37.89"/><rect class="cls-4" x="352.66" y="883.64" width="37.89" height="37.89"/><rect class="cls-5" x="390.55" y="883.64" width="37.89" height="37.89"/><rect class="cls-3" x="428.45" y="817.72" width="37.89" height="37.89"/><rect class="cls-3" x="466.34" y="817.72" width="37.89" height="37.89"/><rect class="cls-3" x="428.45" y="883.64" width="37.89" height="37.89"/><rect class="cls-3" x="466.34" y="883.64" width="37.89" height="37.89"/><rect class="cls-4" x="504.23" y="883.64" width="37.89" height="37.89"/><rect class="cls-5" x="532.35" y="817.72" width="37.89" height="37.89"/><rect class="cls-5" x="570.24" y="817.72" width="37.89" height="37.89"/><rect class="cls-4" x="542.13" y="883.64" width="37.89" height="37.89"/><rect class="cls-5" x="580.02" y="883.64" width="37.89" height="37.89"/><rect class="cls-3" x="617.92" y="883.64" width="37.89" height="37.89"/><rect class="cls-3" x="655.81" y="883.64" width="37.89" height="37.89"/><rect class="cls-4" x="693.7" y="883.64" width="37.89" height="37.89"/><rect class="cls-4" x="731.6" y="883.64" width="37.89" height="37.89"/><rect class="cls-3" x="798.22" y="883.64" width="37.89" height="37.89"/><rect class="cls-3" x="836.11" y="883.64" width="37.89" height="37.89"/><rect class="cls-4" x="874.01" y="883.64" width="37.89" height="37.89"/><rect class="cls-4" x="911.9" y="883.64" width="37.89" height="37.89"/><rect class="cls-3" x="49.51" y="1015.49" width="37.89" height="37.89"/><rect class="cls-3" x="87.4" y="1015.49" width="37.89" height="37.89"/><rect class="cls-4" x="125.29" y="1015.49" width="37.89" height="37.89"/><rect class="cls-4" x="163.19" y="1015.49" width="37.89" height="37.89"/><rect class="cls-5" x="201.08" y="1015.49" width="37.89" height="37.89"/><rect class="cls-3" x="267.09" y="1015.49" width="37.89" height="37.89"/><rect class="cls-4" x="304.98" y="1015.49" width="37.89" height="37.89"/><rect class="cls-4" x="342.88" y="1015.49" width="37.89" height="37.89"/><rect class="cls-5" x="380.77" y="1015.49" width="37.89" height="37.89"/><rect class="cls-3" x="418.67" y="1015.49" width="37.89" height="37.89"/><rect class="cls-3" x="456.56" y="1015.49" width="37.89" height="37.89"/><rect class="cls-4" x="494.45" y="1015.49" width="37.89" height="37.89"/><rect class="cls-4" x="532.35" y="1015.49" width="37.89" height="37.89"/><rect class="cls-3" x="598.97" y="1015.49" width="37.89" height="37.89"/><rect class="cls-3" x="636.86" y="1015.49" width="37.89" height="37.89"/><rect class="cls-4" x="674.76" y="1015.49" width="37.89" height="37.89"/><rect class="cls-4" x="712.65" y="1015.49" width="37.89" height="37.89"/><rect class="cls-5" x="750.55" y="1015.49" width="37.89" height="37.89"/><rect class="cls-3" x="788.44" y="1015.49" width="37.89" height="37.89"/><rect class="cls-3" x="826.33" y="1015.49" width="37.89" height="37.89"/><rect class="cls-4" x="864.23" y="1015.49" width="37.89" height="37.89"/><rect class="cls-4" x="902.12" y="1015.49" width="37.89" height="37.89"/><rect class="cls-5" x="940.02" y="1015.49" width="37.89" height="37.89"/><rect class="cls-3" x="977.91" y="1015.49" width="37.89" height="37.89"/><rect class="cls-3" x="1015.8" y="1015.49" width="37.89" height="37.89"/><rect class="cls-4" x="1053.7" y="1015.49" width="37.89" height="37.89"/><rect class="cls-4" x="1091.59" y="1015.49" width="37.89" height="37.89"/><rect class="cls-5" x="1129.49" y="1015.49" width="37.89" height="37.89"/></g></svg>