<?xml version="1.0" encoding="utf-8"?>
<!-- Generator: Adobe Illustrator 23.0.2, SVG Export Plug-In . SVG Version: 6.00 Build 0)  -->
<svg version="1.1" id="Layer_1" xmlns="http://www.w3.org/2000/svg" xmlns:xlink="http://www.w3.org/1999/xlink" x="0px" y="0px"
	 viewBox="0 0 321.2 104.1" style="enable-background:new 0 0 321.2 104.1;" xml:space="preserve">
<style type="text/css">
	.st0{fill:#A30000;}
	.st1{fill:#EC7A08;}
	.st2{fill:#0088CE;}
	.st3{fill:#3F9C35;}
	.st4{fill:#CC0000;}
	.st5{fill:#F0AB00;}
	.st6{fill:#00B9E4;}
	.st7{fill:#92D400;}
	.st8{fill:#FFFFFF;}
</style>
<g>
	<g>
		<path d="M264.9,39.5c0,5.4,3.2,8,9.1,8c1.4,0,3.9-0.3,5.4-0.8v-6.2c-1.3,0.4-2.2,0.5-3.5,0.5c-2.4,0-3.3-0.8-3.3-3v-9.6h7V22h-7
			v-8.1l-7.7,1.7V22h-5.1v6.4h5.1V39.5z M241,39.6c0-1.7,1.7-2.5,4.2-2.5c1.7,0,3.2,0.2,4.6,0.6V41c-1.4,0.8-3.1,1.2-4.8,1.2
			C242.4,42.1,241,41.2,241,39.6 M243.3,47.6c2.7,0,4.9-0.6,6.9-2v1.5h7.6V31c0-6.1-4.1-9.5-11-9.5c-3.9,0-7.7,0.9-11.8,2.8l2.8,5.7
			c3-1.2,5.4-2,7.6-2c3.2,0,4.8,1.2,4.8,3.8v1.2c-1.8-0.5-3.7-0.7-5.7-0.7c-6.5,0-10.4,2.7-10.4,7.6
			C234.2,44.2,237.7,47.6,243.3,47.6 M201.5,47.1h8.2v-13h13.7v13h8.2V13.8h-8.2v12.8h-13.7V13.8h-8.2V47.1z M170.3,34.5
			c0-3.6,2.9-6.4,6.6-6.4c2.1,0,4,0.7,5.3,2v8.8c-1.4,1.3-3.2,2-5.3,2C173.2,40.9,170.3,38.1,170.3,34.5 M182.3,47.1h7.6v-35
			l-7.7,1.7v9.5c-1.9-1.1-4.1-1.7-6.4-1.7c-7.3,0-13.1,5.7-13.1,12.9c0,7.2,5.7,12.9,12.9,12.9c2.5,0,4.8-0.8,6.8-2.2V47.1z
			 M147.4,27.8c2.4,0,4.5,1.6,5.3,4h-10.5C142.9,29.3,144.8,27.8,147.4,27.8 M134.4,34.6c0,7.3,6,13,13.7,13c4.2,0,7.3-1.1,10.5-3.8
			l-5.1-4.5c-1.2,1.2-3,1.9-5,1.9c-2.9,0-5.2-1.6-6.2-4h17.9v-1.9c0-8-5.4-13.8-12.7-13.8C140.1,21.5,134.4,27.2,134.4,34.6
			 M121.1,20.8c2.7,0,4.2,1.7,4.2,3.8s-1.5,3.8-4.2,3.8H113v-7.5H121.1z M104.8,47.1h8.2V35h6.2l6.3,12.1h9.1l-7.3-13.3
			c4-1.7,6.3-5.3,6.3-9.4c0-6-4.7-10.6-11.8-10.6h-17V47.1z"/>
	</g>
	<g>
		<rect x="9.8" class="st0" width="9.8" height="9.8"/>
		<rect x="19.7" y="17.1" class="st1" width="19.7" height="9.8"/>
		<rect x="9.8" y="51.3" class="st2" width="19.7" height="9.8"/>
		<rect y="34.2" class="st3" width="9.8" height="9.8"/>
		<rect x="27" class="st0" width="19.7" height="9.8"/>
		<rect x="46.6" y="17.1" class="st1" width="9.8" height="9.8"/>
		<rect x="36.8" y="51.3" class="st2" width="9.8" height="9.8"/>
		<rect x="17.1" y="34.2" class="st3" width="19.7" height="9.8"/>
		<rect x="46.6" class="st4" width="29.5" height="9.8"/>
		<rect x="56.5" y="17.1" class="st5" width="29.5" height="9.8"/>
		<rect x="46.6" y="51.3" class="st6" width="19.7" height="9.8"/>
		<rect x="36.8" y="34.2" class="st7" width="39.3" height="9.8"/>
	</g>
	<g>
		<path d="M104.3,95.2V63.4h11.3c2.4,0,4.6,0.4,6.7,1.2c2.1,0.8,3.8,1.9,5.3,3.3c1.5,1.4,2.7,3.1,3.5,5.1c0.8,2,1.3,4.1,1.3,6.4
			c0,2.3-0.4,4.4-1.3,6.3c-0.9,1.9-2,3.6-3.5,5c-1.5,1.4-3.3,2.5-5.3,3.3c-2.1,0.8-4.3,1.2-6.7,1.2H104.3z M115.7,67.6h-6.6V91h6.6
			c1.6,0,3.2-0.3,4.6-0.9c1.5-0.6,2.7-1.4,3.8-2.5s1.9-2.3,2.5-3.7c0.6-1.4,0.9-2.9,0.9-4.6c0-1.6-0.3-3.2-0.9-4.6
			c-0.6-1.4-1.4-2.7-2.5-3.7c-1-1-2.3-1.9-3.8-2.5C118.9,67.9,117.3,67.6,115.7,67.6z"/>
		<path d="M157.6,92.6c-1.3,1-2.7,1.8-4.2,2.3s-3.1,0.8-4.8,0.8c-1.7,0-3.3-0.3-4.8-0.9c-1.5-0.6-2.8-1.5-3.9-2.5
			c-1.1-1.1-2-2.3-2.6-3.8c-0.6-1.5-0.9-3.1-0.9-4.8c0-1.7,0.3-3.2,0.9-4.7c0.6-1.5,1.4-2.7,2.5-3.8c1-1.1,2.3-1.9,3.7-2.5
			c1.4-0.6,2.9-0.9,4.6-0.9c1.6,0,3.1,0.3,4.4,0.9c1.4,0.6,2.6,1.5,3.6,2.6c1,1.1,1.8,2.4,2.3,3.8c0.6,1.5,0.9,3.1,0.9,4.8v1.3H141
			c0.3,1.9,1.2,3.5,2.6,4.8c1.5,1.3,3.2,1.9,5.2,1.9c1.1,0,2.2-0.2,3.2-0.5c1-0.4,1.9-0.9,2.6-1.5L157.6,92.6z M148,75.5
			c-1.7,0-3.2,0.6-4.5,1.7c-1.3,1.2-2.1,2.6-2.4,4.5h13.8c-0.3-1.8-1.1-3.2-2.4-4.4C151.1,76.1,149.7,75.5,148,75.5z"/>
		<path d="M170.7,95.2l-10-23.2h5l7.2,17.4l7.2-17.4h4.9l-10,23.2H170.7z"/>
		<path d="M207.6,92.6c-1.3,1-2.7,1.8-4.2,2.3s-3.1,0.8-4.8,0.8c-1.7,0-3.3-0.3-4.8-0.9c-1.5-0.6-2.8-1.5-3.9-2.5
			c-1.1-1.1-2-2.3-2.6-3.8c-0.6-1.5-0.9-3.1-0.9-4.8c0-1.7,0.3-3.2,0.9-4.7c0.6-1.5,1.4-2.7,2.5-3.8c1-1.1,2.3-1.9,3.7-2.5
			c1.4-0.6,2.9-0.9,4.6-0.9c1.6,0,3.1,0.3,4.4,0.9c1.4,0.6,2.6,1.5,3.6,2.6c1,1.1,1.8,2.4,2.3,3.8c0.6,1.5,0.9,3.1,0.9,4.8v1.3H191
			c0.3,1.9,1.2,3.5,2.6,4.8c1.5,1.3,3.2,1.9,5.2,1.9c1.1,0,2.2-0.2,3.2-0.5s1.9-0.9,2.6-1.5L207.6,92.6z M198,75.5
			c-1.7,0-3.2,0.6-4.5,1.7c-1.3,1.2-2.1,2.6-2.4,4.5h13.8c-0.3-1.8-1.1-3.2-2.4-4.4C201.1,76.1,199.7,75.5,198,75.5z"/>
		<path d="M218.7,62.4v32.9h-4.6V63.4L218.7,62.4z"/>
		<path d="M223.6,83.6c0-1.7,0.3-3.2,0.9-4.7c0.6-1.5,1.5-2.7,2.6-3.8c1.1-1.1,2.4-1.9,3.8-2.6c1.5-0.6,3-0.9,4.7-0.9
			s3.2,0.3,4.7,0.9c1.5,0.6,2.7,1.5,3.8,2.6s1.9,2.4,2.6,3.8c0.6,1.5,0.9,3,0.9,4.7c0,1.7-0.3,3.3-0.9,4.8c-0.6,1.5-1.5,2.7-2.6,3.8
			s-2.4,1.9-3.8,2.6c-1.5,0.6-3,0.9-4.7,0.9s-3.2-0.3-4.7-0.9c-1.5-0.6-2.8-1.5-3.8-2.6c-1.1-1.1-2-2.4-2.6-3.8
			C223.9,86.9,223.6,85.3,223.6,83.6z M235.7,91.7c2.1,0,3.9-0.8,5.4-2.3c1.5-1.6,2.2-3.5,2.2-5.7c0-2.2-0.7-4.1-2.2-5.7
			c-1.5-1.5-3.3-2.3-5.4-2.3s-3.9,0.8-5.4,2.3c-1.5,1.5-2.2,3.4-2.2,5.7c0,2.2,0.7,4.2,2.2,5.7C231.8,90.9,233.6,91.7,235.7,91.7z"
			/>
		<path d="M252.6,104.7V72.1h4.5v2.2c0.9-0.8,2-1.5,3.2-1.9c1.2-0.4,2.5-0.7,3.9-0.7c1.6,0,3.2,0.3,4.6,0.9c1.4,0.6,2.7,1.5,3.7,2.5
			c1,1.1,1.9,2.3,2.5,3.8c0.6,1.5,0.9,3,0.9,4.7s-0.3,3.2-0.9,4.7c-0.6,1.5-1.4,2.7-2.5,3.8c-1,1.1-2.3,1.9-3.8,2.5
			c-1.5,0.6-3,0.9-4.6,0.9c-1.3,0-2.5-0.2-3.7-0.6c-1.2-0.4-2.3-1-3.3-1.7v11.3H252.6z M263.6,75.7c-1.3,0-2.5,0.2-3.6,0.7
			c-1.1,0.5-2.1,1.2-2.8,2.1v10.5c0.7,0.9,1.7,1.5,2.8,2c1.1,0.5,2.4,0.7,3.7,0.7c2.2,0,4.1-0.8,5.6-2.3c1.5-1.5,2.3-3.4,2.3-5.7
			c0-2.3-0.8-4.2-2.3-5.7C267.6,76.4,265.8,75.7,263.6,75.7z"/>
		<path d="M301,92.6c-1.3,1-2.7,1.8-4.2,2.3s-3.1,0.8-4.8,0.8c-1.7,0-3.3-0.3-4.8-0.9c-1.5-0.6-2.8-1.5-3.9-2.5
			c-1.1-1.1-2-2.3-2.6-3.8c-0.6-1.5-0.9-3.1-0.9-4.8c0-1.7,0.3-3.2,0.9-4.7c0.6-1.5,1.4-2.7,2.5-3.8c1-1.1,2.3-1.9,3.7-2.5
			c1.4-0.6,2.9-0.9,4.6-0.9c1.6,0,3.1,0.3,4.4,0.9c1.4,0.6,2.6,1.5,3.6,2.6c1,1.1,1.8,2.4,2.3,3.8c0.6,1.5,0.9,3.1,0.9,4.8v1.3
			h-18.3c0.3,1.9,1.2,3.5,2.6,4.8c1.5,1.3,3.2,1.9,5.2,1.9c1.1,0,2.2-0.2,3.2-0.5s1.9-0.9,2.6-1.5L301,92.6z M291.4,75.5
			c-1.7,0-3.2,0.6-4.5,1.7c-1.3,1.2-2.1,2.6-2.4,4.5h13.8c-0.3-1.8-1.1-3.2-2.4-4.4C294.5,76.1,293,75.5,291.4,75.5z"/>
		<path d="M307.5,95.2V72.1h4.6v3c0.7-1.1,1.6-2,2.7-2.6c1.1-0.6,2.3-0.9,3.7-0.9c0.5,0,0.9,0,1.3,0.1c0.4,0.1,0.7,0.2,1,0.3V76
			c-0.4-0.2-0.9-0.3-1.3-0.4c-0.5-0.1-0.9-0.1-1.4-0.1c-1.3,0-2.5,0.4-3.6,1.1c-1,0.7-1.9,1.8-2.4,3.2v15.5H307.5z"/>
	</g>
</g>
</svg>
