<svg id="Layer_1" data-name="Layer 1" xmlns="http://www.w3.org/2000/svg" xmlns:xlink="http://www.w3.org/1999/xlink" viewBox="0 0 1920 1080"><defs><style>.cls-1{fill:#f9f9fa;}.cls-2{opacity:0.2;}.cls-3{fill:#333;}.cls-4{fill:#434343;}.cls-5{fill:#656666;}.cls-6{fill:url(#linear-gradient);}.cls-7{fill:url(#linear-gradient-2);}.cls-8{fill:#820000;}.cls-9{fill:#ec7a08;}.cls-10{fill:#0088ce;}.cls-11{fill:#3f9c35;}.cls-12{fill:#c00;}.cls-13{fill:#f0ab00;}.cls-14{fill:#00b9e4;}.cls-15{fill:#92d400;}</style><linearGradient id="linear-gradient" y1="540" x2="1920" y2="540" gradientUnits="userSpaceOnUse"><stop offset="0" stop-color="#f9f9fa" stop-opacity="0"/><stop offset="1" stop-color="#f9f9fa"/></linearGradient><linearGradient id="linear-gradient-2" x1="960" y1="115.06" x2="960" y2="967.86" gradientUnits="userSpaceOnUse"><stop offset="0" stop-color="#f9f9fa"/><stop offset="0.51" stop-color="#f9f9fa" stop-opacity="0"/><stop offset="1" stop-color="#f9f9fa"/></linearGradient></defs><title>RHD_universal_code_block</title><rect class="cls-1" width="1920" height="1080"/><g class="cls-2"><rect class="cls-3" x="191.83" y="123.56" width="35.27" height="35.27"/><rect class="cls-3" x="227.1" y="123.56" width="35.27" height="35.27"/><rect class="cls-4" x="262.37" y="123.56" width="35.27" height="35.27"/><rect class="cls-4" x="297.64" y="123.56" width="35.27" height="35.27"/><rect class="cls-5" x="332.91" y="123.56" width="35.27" height="35.27"/><rect class="cls-3" x="368.17" y="123.56" width="35.27" height="35.27"/><rect class="cls-3" x="403.44" y="123.56" width="35.27" height="35.27"/><rect class="cls-4" x="438.71" y="123.56" width="35.27" height="35.27"/><rect class="cls-4" x="473.98" y="123.56" width="35.27" height="35.27"/><rect class="cls-5" x="509.25" y="123.56" width="35.27" height="35.27"/><rect class="cls-3" x="544.51" y="123.56" width="35.27" height="35.27"/><rect class="cls-3" x="579.78" y="123.56" width="35.27" height="35.27"/><rect class="cls-4" x="615.05" y="123.56" width="35.27" height="35.27"/><rect class="cls-4" x="650.32" y="123.56" width="35.27" height="35.27"/><rect class="cls-3" x="711.75" y="123.56" width="35.27" height="35.27"/><rect class="cls-3" x="747.02" y="123.56" width="35.27" height="35.27"/><rect class="cls-4" x="782.29" y="123.56" width="35.27" height="35.27"/><rect class="cls-4" x="817.55" y="123.56" width="35.27" height="35.27"/><rect class="cls-5" x="852.82" y="123.56" width="35.27" height="35.27"/><rect class="cls-3" x="888.09" y="123.56" width="35.27" height="35.27"/><rect class="cls-3" x="923.36" y="123.56" width="35.27" height="35.27"/><rect class="cls-4" x="958.63" y="123.56" width="35.27" height="35.27"/><rect class="cls-4" x="993.89" y="123.56" width="35.27" height="35.27"/><rect class="cls-5" x="1029.16" y="123.56" width="35.27" height="35.27"/><rect class="cls-3" x="1064.43" y="123.56" width="35.27" height="35.27"/><rect class="cls-3" x="1099.7" y="123.56" width="35.27" height="35.27"/><rect class="cls-4" x="1134.97" y="123.56" width="35.27" height="35.27"/><rect class="cls-4" x="1170.23" y="123.56" width="35.27" height="35.27"/><rect class="cls-5" x="1205.5" y="123.56" width="35.27" height="35.27"/><rect class="cls-3" x="1267.51" y="123.56" width="35.27" height="35.27"/><rect class="cls-4" x="1302.77" y="123.56" width="35.27" height="35.27"/><rect class="cls-4" x="1338.04" y="123.56" width="35.27" height="35.27"/><rect class="cls-5" x="1373.31" y="123.56" width="35.27" height="35.27"/><rect class="cls-3" x="1408.58" y="123.56" width="35.27" height="35.27"/><rect class="cls-3" x="1443.85" y="123.56" width="35.27" height="35.27"/><rect class="cls-4" x="1479.11" y="123.56" width="35.27" height="35.27"/><rect class="cls-4" x="1514.38" y="123.56" width="35.27" height="35.27"/><rect class="cls-3" x="191.83" y="184.91" width="35.27" height="35.27"/><rect class="cls-3" x="227.1" y="184.91" width="35.27" height="35.27"/><rect class="cls-3" x="191.83" y="246.27" width="35.27" height="35.27"/><rect class="cls-3" x="227.1" y="246.27" width="35.27" height="35.27"/><rect class="cls-4" x="262.37" y="246.27" width="35.27" height="35.27"/><rect class="cls-4" x="262.37" y="184.91" width="35.27" height="35.27"/><rect class="cls-5" x="297.64" y="184.91" width="35.27" height="35.27"/><rect class="cls-5" x="332.91" y="184.91" width="35.27" height="35.27"/><rect class="cls-4" x="297.64" y="246.27" width="35.27" height="35.27"/><rect class="cls-3" x="368.17" y="184.91" width="35.27" height="35.27"/><rect class="cls-3" x="403.44" y="184.91" width="35.27" height="35.27"/><rect class="cls-3" x="359.07" y="246.27" width="35.27" height="35.27"/><rect class="cls-3" x="394.34" y="246.27" width="35.27" height="35.27"/><rect class="cls-4" x="438.71" y="184.91" width="35.27" height="35.27"/><rect class="cls-5" x="473.98" y="184.91" width="35.27" height="35.27"/><rect class="cls-5" x="509.25" y="184.91" width="35.27" height="35.27"/><rect class="cls-4" x="455.77" y="246.27" width="35.27" height="35.27"/><rect class="cls-5" x="491.04" y="246.27" width="35.27" height="35.27"/><rect class="cls-3" x="544.51" y="184.91" width="35.27" height="35.27"/><rect class="cls-3" x="579.78" y="184.91" width="35.27" height="35.27"/><rect class="cls-3" x="526.31" y="246.27" width="35.27" height="35.27"/><rect class="cls-3" x="561.58" y="246.27" width="35.27" height="35.27"/><rect class="cls-4" x="596.84" y="246.27" width="35.27" height="35.27"/><rect class="cls-4" x="615.05" y="184.91" width="35.27" height="35.27"/><rect class="cls-5" x="650.32" y="184.91" width="35.27" height="35.27"/><rect class="cls-5" x="685.59" y="184.91" width="35.27" height="35.27"/><rect class="cls-4" x="632.11" y="246.27" width="35.27" height="35.27"/><rect class="cls-5" x="667.38" y="246.27" width="35.27" height="35.27"/><rect class="cls-3" x="720.85" y="184.91" width="35.27" height="35.27"/><rect class="cls-3" x="756.12" y="184.91" width="35.27" height="35.27"/><rect class="cls-3" x="702.65" y="246.27" width="35.27" height="35.27"/><rect class="cls-3" x="737.92" y="246.27" width="35.27" height="35.27"/><rect class="cls-4" x="773.18" y="246.27" width="35.27" height="35.27"/><rect class="cls-4" x="791.39" y="184.91" width="35.27" height="35.27"/><rect class="cls-5" x="826.66" y="184.91" width="35.27" height="35.27"/><rect class="cls-5" x="861.92" y="184.91" width="35.27" height="35.27"/><rect class="cls-4" x="808.45" y="246.27" width="35.27" height="35.27"/><rect class="cls-5" x="843.72" y="246.27" width="35.27" height="35.27"/><rect class="cls-3" x="897.19" y="184.91" width="35.27" height="35.27"/><rect class="cls-3" x="932.46" y="184.91" width="35.27" height="35.27"/><rect class="cls-3" x="878.99" y="246.27" width="35.27" height="35.27"/><rect class="cls-3" x="914.26" y="246.27" width="35.27" height="35.27"/><rect class="cls-4" x="949.52" y="246.27" width="35.27" height="35.27"/><rect class="cls-4" x="967.73" y="184.91" width="35.27" height="35.27"/><rect class="cls-5" x="1029.16" y="184.91" width="35.27" height="35.27"/><rect class="cls-4" x="984.79" y="246.27" width="35.27" height="35.27"/><rect class="cls-5" x="1020.06" y="246.27" width="35.27" height="35.27"/><rect class="cls-3" x="1064.43" y="184.91" width="35.27" height="35.27"/><rect class="cls-3" x="1099.7" y="184.91" width="35.27" height="35.27"/><rect class="cls-3" x="1055.33" y="246.27" width="35.27" height="35.27"/><rect class="cls-3" x="1090.59" y="246.27" width="35.27" height="35.27"/><rect class="cls-4" x="1125.86" y="246.27" width="35.27" height="35.27"/><rect class="cls-4" x="1134.97" y="184.91" width="35.27" height="35.27"/><rect class="cls-5" x="1170.23" y="184.91" width="35.27" height="35.27"/><rect class="cls-5" x="1205.5" y="184.91" width="35.27" height="35.27"/><rect class="cls-4" x="1161.13" y="246.27" width="35.27" height="35.27"/><rect class="cls-5" x="1196.4" y="246.27" width="35.27" height="35.27"/><rect class="cls-3" x="1240.77" y="184.91" width="35.27" height="35.27"/><rect class="cls-3" x="1276.04" y="184.91" width="35.27" height="35.27"/><rect class="cls-3" x="1231.67" y="246.27" width="35.27" height="35.27"/><rect class="cls-3" x="1266.93" y="246.27" width="35.27" height="35.27"/><rect class="cls-4" x="1302.2" y="246.27" width="35.27" height="35.27"/><rect class="cls-4" x="1337.47" y="246.27" width="35.27" height="35.27"/><rect class="cls-5" x="1372.74" y="246.27" width="35.27" height="35.27"/><rect class="cls-3" x="191.83" y="368.98" width="35.27" height="35.27"/><rect class="cls-3" x="227.1" y="368.98" width="35.27" height="35.27"/><rect class="cls-4" x="262.37" y="368.98" width="35.27" height="35.27"/><rect class="cls-4" x="297.64" y="368.98" width="35.27" height="35.27"/><rect class="cls-5" x="332.91" y="368.98" width="35.27" height="35.27"/><rect class="cls-3" x="368.17" y="368.98" width="35.27" height="35.27"/><rect class="cls-3" x="403.44" y="368.98" width="35.27" height="35.27"/><rect class="cls-4" x="438.71" y="368.98" width="35.27" height="35.27"/><rect class="cls-4" x="473.98" y="368.98" width="35.27" height="35.27"/><rect class="cls-5" x="509.25" y="368.98" width="35.27" height="35.27"/><rect class="cls-3" x="544.51" y="368.98" width="35.27" height="35.27"/><rect class="cls-3" x="579.78" y="368.98" width="35.27" height="35.27"/><rect class="cls-4" x="615.05" y="368.98" width="35.27" height="35.27"/><rect class="cls-4" x="650.32" y="368.98" width="35.27" height="35.27"/><rect class="cls-5" x="685.59" y="368.98" width="35.27" height="35.27"/><rect class="cls-3" x="720.85" y="368.98" width="35.27" height="35.27"/><rect class="cls-3" x="756.12" y="368.98" width="35.27" height="35.27"/><rect class="cls-4" x="791.39" y="368.98" width="35.27" height="35.27"/><rect class="cls-4" x="826.66" y="368.98" width="35.27" height="35.27"/><rect class="cls-5" x="861.92" y="368.98" width="35.27" height="35.27"/><rect class="cls-3" x="191.83" y="430.33" width="35.27" height="35.27"/><rect class="cls-3" x="227.1" y="430.33" width="35.27" height="35.27"/><rect class="cls-3" x="191.83" y="491.69" width="35.27" height="35.27"/><rect class="cls-3" x="227.1" y="491.69" width="35.27" height="35.27"/><rect class="cls-4" x="262.37" y="491.69" width="35.27" height="35.27"/><rect class="cls-4" x="262.37" y="430.33" width="35.27" height="35.27"/><rect class="cls-5" x="297.64" y="430.33" width="35.27" height="35.27"/><rect class="cls-5" x="332.91" y="430.33" width="35.27" height="35.27"/><rect class="cls-4" x="297.64" y="491.69" width="35.27" height="35.27"/><rect class="cls-5" x="332.91" y="491.69" width="35.27" height="35.27"/><rect class="cls-3" x="368.17" y="430.33" width="35.27" height="35.27"/><rect class="cls-3" x="403.44" y="430.33" width="35.27" height="35.27"/><rect class="cls-3" x="368.17" y="491.69" width="35.27" height="35.27"/><rect class="cls-3" x="403.44" y="491.69" width="35.27" height="35.27"/><rect class="cls-4" x="438.71" y="491.69" width="35.27" height="35.27"/><rect class="cls-5" x="464.88" y="430.33" width="35.27" height="35.27"/><rect class="cls-5" x="500.14" y="430.33" width="35.27" height="35.27"/><rect class="cls-4" x="473.98" y="491.69" width="35.27" height="35.27"/><rect class="cls-3" x="535.41" y="430.33" width="35.27" height="35.27"/><rect class="cls-3" x="570.68" y="430.33" width="35.27" height="35.27"/><rect class="cls-3" x="535.41" y="491.69" width="35.27" height="35.27"/><rect class="cls-3" x="570.68" y="491.69" width="35.27" height="35.27"/><rect class="cls-4" x="605.95" y="491.69" width="35.27" height="35.27"/><rect class="cls-4" x="605.95" y="430.33" width="35.27" height="35.27"/><rect class="cls-5" x="641.21" y="430.33" width="35.27" height="35.27"/><rect class="cls-5" x="676.48" y="430.33" width="35.27" height="35.27"/><rect class="cls-4" x="641.21" y="491.69" width="35.27" height="35.27"/><rect class="cls-5" x="676.48" y="491.69" width="35.27" height="35.27"/><rect class="cls-3" x="711.75" y="430.33" width="35.27" height="35.27"/><rect class="cls-3" x="747.02" y="430.33" width="35.27" height="35.27"/><rect class="cls-3" x="711.75" y="491.69" width="35.27" height="35.27"/><rect class="cls-3" x="747.02" y="491.69" width="35.27" height="35.27"/><rect class="cls-4" x="782.29" y="491.69" width="35.27" height="35.27"/><rect class="cls-4" x="782.29" y="430.33" width="35.27" height="35.27"/><rect class="cls-5" x="817.55" y="430.33" width="35.27" height="35.27"/><rect class="cls-5" x="852.82" y="430.33" width="35.27" height="35.27"/><rect class="cls-4" x="817.55" y="491.69" width="35.27" height="35.27"/><rect class="cls-5" x="852.82" y="491.69" width="35.27" height="35.27"/><rect class="cls-3" x="888.09" y="430.33" width="35.27" height="35.27"/><rect class="cls-3" x="923.36" y="430.33" width="35.27" height="35.27"/><rect class="cls-3" x="888.09" y="491.69" width="35.27" height="35.27"/><rect class="cls-3" x="923.36" y="491.69" width="35.27" height="35.27"/><rect class="cls-4" x="958.63" y="491.69" width="35.27" height="35.27"/><rect class="cls-4" x="958.63" y="430.33" width="35.27" height="35.27"/><rect class="cls-5" x="993.89" y="430.33" width="35.27" height="35.27"/><rect class="cls-5" x="1029.16" y="430.33" width="35.27" height="35.27"/><rect class="cls-4" x="993.89" y="491.69" width="35.27" height="35.27"/><rect class="cls-5" x="1029.16" y="491.69" width="35.27" height="35.27"/><rect class="cls-3" x="1064.43" y="430.33" width="35.27" height="35.27"/><rect class="cls-3" x="1099.7" y="430.33" width="35.27" height="35.27"/><rect class="cls-3" x="1064.43" y="491.69" width="35.27" height="35.27"/><rect class="cls-3" x="1099.7" y="491.69" width="35.27" height="35.27"/><rect class="cls-4" x="1134.97" y="491.69" width="35.27" height="35.27"/><rect class="cls-4" x="1134.97" y="430.33" width="35.27" height="35.27"/><rect class="cls-5" x="1170.23" y="430.33" width="35.27" height="35.27"/><rect class="cls-5" x="1205.5" y="430.33" width="35.27" height="35.27"/><rect class="cls-4" x="1170.23" y="491.69" width="35.27" height="35.27"/><rect class="cls-5" x="1205.5" y="491.69" width="35.27" height="35.27"/><rect class="cls-3" x="1240.77" y="430.33" width="35.27" height="35.27"/><rect class="cls-3" x="1276.04" y="430.33" width="35.27" height="35.27"/><rect class="cls-3" x="1266.93" y="491.69" width="35.27" height="35.27"/><rect class="cls-4" x="1302.2" y="491.69" width="35.27" height="35.27"/><rect class="cls-4" x="1311.3" y="430.33" width="35.27" height="35.27"/><rect class="cls-5" x="1346.57" y="430.33" width="35.27" height="35.27"/><rect class="cls-5" x="1381.84" y="430.33" width="35.27" height="35.27"/><rect class="cls-4" x="1337.47" y="491.69" width="35.27" height="35.27"/><rect class="cls-5" x="1372.74" y="491.69" width="35.27" height="35.27"/><rect class="cls-3" x="1417.11" y="430.33" width="35.27" height="35.27"/><rect class="cls-3" x="1452.38" y="430.33" width="35.27" height="35.27"/><rect class="cls-4" x="1487.64" y="430.33" width="35.27" height="35.27"/><rect class="cls-3" x="191.83" y="553.04" width="35.27" height="35.27"/><rect class="cls-3" x="227.1" y="553.04" width="35.27" height="35.27"/><rect class="cls-3" x="191.83" y="614.4" width="35.27" height="35.27"/><rect class="cls-3" x="227.1" y="614.4" width="35.27" height="35.27"/><rect class="cls-4" x="262.37" y="614.4" width="35.27" height="35.27"/><rect class="cls-4" x="262.37" y="553.04" width="35.27" height="35.27"/><rect class="cls-5" x="297.64" y="553.04" width="35.27" height="35.27"/><rect class="cls-5" x="332.91" y="553.04" width="35.27" height="35.27"/><rect class="cls-4" x="297.64" y="614.4" width="35.27" height="35.27"/><rect class="cls-5" x="332.91" y="614.4" width="35.27" height="35.27"/><rect class="cls-3" x="368.17" y="553.04" width="35.27" height="35.27"/><rect class="cls-3" x="368.17" y="614.4" width="35.27" height="35.27"/><rect class="cls-3" x="403.44" y="614.4" width="35.27" height="35.27"/><rect class="cls-4" x="438.71" y="614.4" width="35.27" height="35.27"/><rect class="cls-4" x="429.61" y="553.04" width="35.27" height="35.27"/><rect class="cls-5" x="464.88" y="553.04" width="35.27" height="35.27"/><rect class="cls-5" x="500.14" y="553.04" width="35.27" height="35.27"/><rect class="cls-5" x="500.14" y="614.4" width="35.27" height="35.27"/><rect class="cls-3" x="535.41" y="553.04" width="35.27" height="35.27"/><rect class="cls-3" x="570.68" y="553.04" width="35.27" height="35.27"/><rect class="cls-3" x="535.41" y="614.4" width="35.27" height="35.27"/><rect class="cls-3" x="570.68" y="614.4" width="35.27" height="35.27"/><rect class="cls-4" x="605.95" y="614.4" width="35.27" height="35.27"/><rect class="cls-4" x="605.95" y="553.04" width="35.27" height="35.27"/><rect class="cls-5" x="641.21" y="553.04" width="35.27" height="35.27"/><rect class="cls-5" x="676.48" y="553.04" width="35.27" height="35.27"/><rect class="cls-4" x="641.21" y="614.4" width="35.27" height="35.27"/><rect class="cls-5" x="676.48" y="614.4" width="35.27" height="35.27"/><rect class="cls-3" x="711.75" y="553.04" width="35.27" height="35.27"/><rect class="cls-3" x="747.02" y="553.04" width="35.27" height="35.27"/><rect class="cls-3" x="711.75" y="614.4" width="35.27" height="35.27"/><rect class="cls-3" x="747.02" y="614.4" width="35.27" height="35.27"/><rect class="cls-4" x="782.29" y="614.4" width="35.27" height="35.27"/><rect class="cls-4" x="782.29" y="553.04" width="35.27" height="35.27"/><rect class="cls-5" x="817.55" y="553.04" width="35.27" height="35.27"/><rect class="cls-5" x="852.82" y="553.04" width="35.27" height="35.27"/><rect class="cls-4" x="817.55" y="614.4" width="35.27" height="35.27"/><rect class="cls-5" x="852.82" y="614.4" width="35.27" height="35.27"/><rect class="cls-3" x="888.09" y="553.04" width="35.27" height="35.27"/><rect class="cls-3" x="923.36" y="553.04" width="35.27" height="35.27"/><rect class="cls-3" x="888.09" y="614.4" width="35.27" height="35.27"/><rect class="cls-3" x="923.36" y="614.4" width="35.27" height="35.27"/><rect class="cls-4" x="958.63" y="614.4" width="35.27" height="35.27"/><rect class="cls-4" x="958.63" y="553.04" width="35.27" height="35.27"/><rect class="cls-5" x="993.89" y="553.04" width="35.27" height="35.27"/><rect class="cls-5" x="1029.16" y="553.04" width="35.27" height="35.27"/><rect class="cls-4" x="993.89" y="614.4" width="35.27" height="35.27"/><rect class="cls-5" x="1029.16" y="614.4" width="35.27" height="35.27"/><rect class="cls-3" x="1064.43" y="553.04" width="35.27" height="35.27"/><rect class="cls-3" x="1099.7" y="553.04" width="35.27" height="35.27"/><rect class="cls-3" x="1064.43" y="614.4" width="35.27" height="35.27"/><rect class="cls-3" x="1099.7" y="614.4" width="35.27" height="35.27"/><rect class="cls-4" x="1134.97" y="553.04" width="35.27" height="35.27"/><rect class="cls-5" x="1170.23" y="553.04" width="35.27" height="35.27"/><rect class="cls-5" x="1205.5" y="553.04" width="35.27" height="35.27"/><rect class="cls-3" x="1240.77" y="553.04" width="35.27" height="35.27"/><rect class="cls-3" x="1276.04" y="553.04" width="35.27" height="35.27"/><rect class="cls-4" x="1311.3" y="553.04" width="35.27" height="35.27"/><rect class="cls-5" x="1346.57" y="553.04" width="35.27" height="35.27"/><rect class="cls-5" x="1381.84" y="553.04" width="35.27" height="35.27"/><rect class="cls-3" x="1417.11" y="553.04" width="35.27" height="35.27"/><rect class="cls-3" x="1452.38" y="553.04" width="35.27" height="35.27"/><rect class="cls-4" x="1487.64" y="553.04" width="35.27" height="35.27"/><rect class="cls-5" x="1522.91" y="553.04" width="35.27" height="35.27"/><rect class="cls-5" x="1558.18" y="553.04" width="35.27" height="35.27"/><rect class="cls-3" x="1593.45" y="553.04" width="35.27" height="35.27"/><rect class="cls-3" x="1628.72" y="553.04" width="35.27" height="35.27"/><rect class="cls-4" x="1663.98" y="553.04" width="35.27" height="35.27"/><rect class="cls-5" x="1699.25" y="553.04" width="35.27" height="35.27"/><rect class="cls-3" x="191.83" y="62.2" width="35.27" height="35.27"/><rect class="cls-3" x="227.1" y="62.2" width="35.27" height="35.27"/><rect class="cls-4" x="262.37" y="62.2" width="35.27" height="35.27"/><rect class="cls-5" x="297.64" y="62.2" width="35.27" height="35.27"/><rect class="cls-5" x="332.91" y="62.2" width="35.27" height="35.27"/><rect class="cls-3" x="368.17" y="62.2" width="35.27" height="35.27"/><rect class="cls-4" x="429.61" y="62.2" width="35.27" height="35.27"/><rect class="cls-5" x="464.88" y="62.2" width="35.27" height="35.27"/><rect class="cls-5" x="500.14" y="62.2" width="35.27" height="35.27"/><rect class="cls-3" x="535.41" y="62.2" width="35.27" height="35.27"/><rect class="cls-3" x="570.68" y="62.2" width="35.27" height="35.27"/><rect class="cls-4" x="605.95" y="62.2" width="35.27" height="35.27"/><rect class="cls-5" x="641.21" y="62.2" width="35.27" height="35.27"/><rect class="cls-5" x="676.48" y="62.2" width="35.27" height="35.27"/><rect class="cls-3" x="711.75" y="62.2" width="35.27" height="35.27"/><rect class="cls-3" x="747.02" y="62.2" width="35.27" height="35.27"/><rect class="cls-4" x="782.29" y="62.2" width="35.27" height="35.27"/><rect class="cls-5" x="817.55" y="62.2" width="35.27" height="35.27"/><rect class="cls-5" x="852.82" y="62.2" width="35.27" height="35.27"/><rect class="cls-3" x="888.09" y="62.2" width="35.27" height="35.27"/><rect class="cls-3" x="923.36" y="62.2" width="35.27" height="35.27"/><rect class="cls-4" x="958.63" y="62.2" width="35.27" height="35.27"/><rect class="cls-5" x="993.89" y="62.2" width="35.27" height="35.27"/><rect class="cls-5" x="1029.16" y="62.2" width="35.27" height="35.27"/><rect class="cls-3" x="191.83" y="675.75" width="35.27" height="35.27"/><rect class="cls-3" x="227.1" y="675.75" width="35.27" height="35.27"/><rect class="cls-3" x="191.83" y="737.11" width="35.27" height="35.27"/><rect class="cls-3" x="227.1" y="737.11" width="35.27" height="35.27"/><rect class="cls-4" x="262.37" y="737.11" width="35.27" height="35.27"/><rect class="cls-4" x="262.37" y="675.75" width="35.27" height="35.27"/><rect class="cls-5" x="297.64" y="675.75" width="35.27" height="35.27"/><rect class="cls-5" x="332.91" y="675.75" width="35.27" height="35.27"/><rect class="cls-4" x="297.64" y="737.11" width="35.27" height="35.27"/><rect class="cls-3" x="368.17" y="675.75" width="35.27" height="35.27"/><rect class="cls-3" x="403.44" y="675.75" width="35.27" height="35.27"/><rect class="cls-3" x="359.07" y="737.11" width="35.27" height="35.27"/><rect class="cls-3" x="394.34" y="737.11" width="35.27" height="35.27"/><rect class="cls-4" x="429.61" y="737.11" width="35.27" height="35.27"/><rect class="cls-4" x="438.71" y="675.75" width="35.27" height="35.27"/><rect class="cls-5" x="473.98" y="675.75" width="35.27" height="35.27"/><rect class="cls-5" x="509.25" y="675.75" width="35.27" height="35.27"/><rect class="cls-4" x="464.88" y="737.11" width="35.27" height="35.27"/><rect class="cls-5" x="500.14" y="737.11" width="35.27" height="35.27"/><rect class="cls-3" x="544.51" y="675.75" width="35.27" height="35.27"/><rect class="cls-3" x="579.78" y="675.75" width="35.27" height="35.27"/><rect class="cls-3" x="535.41" y="737.11" width="35.27" height="35.27"/><rect class="cls-3" x="570.68" y="737.11" width="35.27" height="35.27"/><rect class="cls-4" x="605.95" y="737.11" width="35.27" height="35.27"/><rect class="cls-4" x="615.05" y="675.75" width="35.27" height="35.27"/><rect class="cls-5" x="650.32" y="675.75" width="35.27" height="35.27"/><rect class="cls-5" x="685.59" y="675.75" width="35.27" height="35.27"/><rect class="cls-4" x="641.21" y="737.11" width="35.27" height="35.27"/><rect class="cls-5" x="676.48" y="737.11" width="35.27" height="35.27"/><rect class="cls-3" x="720.85" y="675.75" width="35.27" height="35.27"/><rect class="cls-3" x="756.12" y="675.75" width="35.27" height="35.27"/><rect class="cls-3" x="711.75" y="737.11" width="35.27" height="35.27"/><rect class="cls-3" x="747.02" y="737.11" width="35.27" height="35.27"/><rect class="cls-4" x="782.29" y="737.11" width="35.27" height="35.27"/><rect class="cls-4" x="791.39" y="675.75" width="35.27" height="35.27"/><rect class="cls-5" x="826.66" y="675.75" width="35.27" height="35.27"/><rect class="cls-5" x="861.92" y="675.75" width="35.27" height="35.27"/><rect class="cls-4" x="817.55" y="737.11" width="35.27" height="35.27"/><rect class="cls-3" x="897.19" y="675.75" width="35.27" height="35.27"/><rect class="cls-3" x="932.46" y="675.75" width="35.27" height="35.27"/><rect class="cls-4" x="967.73" y="675.75" width="35.27" height="35.27"/><rect class="cls-5" x="1003" y="675.75" width="35.27" height="35.27"/><rect class="cls-5" x="1038.26" y="675.75" width="35.27" height="35.27"/><rect class="cls-3" x="1073.53" y="675.75" width="35.27" height="35.27"/><rect class="cls-3" x="1108.8" y="675.75" width="35.27" height="35.27"/><rect class="cls-4" x="1144.07" y="675.75" width="35.27" height="35.27"/><rect class="cls-5" x="1179.34" y="675.75" width="35.27" height="35.27"/><rect class="cls-5" x="1214.6" y="675.75" width="35.27" height="35.27"/><rect class="cls-3" x="1249.87" y="675.75" width="35.27" height="35.27"/><rect class="cls-3" x="191.83" y="798.46" width="35.27" height="35.27"/><rect class="cls-3" x="227.1" y="798.46" width="35.27" height="35.27"/><rect class="cls-3" x="191.83" y="859.82" width="35.27" height="35.27"/><rect class="cls-3" x="227.1" y="859.82" width="35.27" height="35.27"/><rect class="cls-4" x="262.37" y="859.82" width="35.27" height="35.27"/><rect class="cls-4" x="262.37" y="798.46" width="35.27" height="35.27"/><rect class="cls-5" x="297.64" y="798.46" width="35.27" height="35.27"/><rect class="cls-5" x="332.91" y="798.46" width="35.27" height="35.27"/><rect class="cls-4" x="297.64" y="859.82" width="35.27" height="35.27"/><rect class="cls-5" x="332.91" y="859.82" width="35.27" height="35.27"/><rect class="cls-3" x="368.17" y="798.46" width="35.27" height="35.27"/><rect class="cls-3" x="403.44" y="798.46" width="35.27" height="35.27"/><rect class="cls-3" x="368.17" y="859.82" width="35.27" height="35.27"/><rect class="cls-3" x="403.44" y="859.82" width="35.27" height="35.27"/><rect class="cls-4" x="438.71" y="859.82" width="35.27" height="35.27"/><rect class="cls-4" x="438.71" y="798.46" width="35.27" height="35.27"/><rect class="cls-5" x="473.98" y="798.46" width="35.27" height="35.27"/><rect class="cls-5" x="509.25" y="798.46" width="35.27" height="35.27"/><rect class="cls-4" x="473.98" y="859.82" width="35.27" height="35.27"/><rect class="cls-5" x="509.25" y="859.82" width="35.27" height="35.27"/><rect class="cls-3" x="544.51" y="798.46" width="35.27" height="35.27"/><rect class="cls-3" x="579.78" y="798.46" width="35.27" height="35.27"/><rect class="cls-3" x="544.51" y="859.82" width="35.27" height="35.27"/><rect class="cls-3" x="579.78" y="859.82" width="35.27" height="35.27"/><rect class="cls-4" x="615.05" y="859.82" width="35.27" height="35.27"/><rect class="cls-5" x="641.21" y="798.46" width="35.27" height="35.27"/><rect class="cls-5" x="676.48" y="798.46" width="35.27" height="35.27"/><rect class="cls-4" x="650.32" y="859.82" width="35.27" height="35.27"/><rect class="cls-5" x="685.59" y="859.82" width="35.27" height="35.27"/><rect class="cls-3" x="720.85" y="859.82" width="35.27" height="35.27"/><rect class="cls-3" x="756.12" y="859.82" width="35.27" height="35.27"/><rect class="cls-4" x="791.39" y="859.82" width="35.27" height="35.27"/><rect class="cls-4" x="826.66" y="859.82" width="35.27" height="35.27"/><rect class="cls-3" x="888.66" y="859.82" width="35.27" height="35.27"/><rect class="cls-3" x="923.93" y="859.82" width="35.27" height="35.27"/><rect class="cls-4" x="959.2" y="859.82" width="35.27" height="35.27"/><rect class="cls-4" x="994.46" y="859.82" width="35.27" height="35.27"/><rect class="cls-3" x="191.83" y="982.53" width="35.27" height="35.27"/><rect class="cls-3" x="227.1" y="982.53" width="35.27" height="35.27"/><rect class="cls-4" x="262.37" y="982.53" width="35.27" height="35.27"/><rect class="cls-4" x="297.64" y="982.53" width="35.27" height="35.27"/><rect class="cls-5" x="332.91" y="982.53" width="35.27" height="35.27"/><rect class="cls-3" x="394.34" y="982.53" width="35.27" height="35.27"/><rect class="cls-4" x="429.61" y="982.53" width="35.27" height="35.27"/><rect class="cls-4" x="464.88" y="982.53" width="35.27" height="35.27"/><rect class="cls-5" x="500.14" y="982.53" width="35.27" height="35.27"/><rect class="cls-3" x="535.41" y="982.53" width="35.27" height="35.27"/><rect class="cls-3" x="570.68" y="982.53" width="35.27" height="35.27"/><rect class="cls-4" x="605.95" y="982.53" width="35.27" height="35.27"/><rect class="cls-4" x="641.21" y="982.53" width="35.27" height="35.27"/><rect class="cls-3" x="703.22" y="982.53" width="35.27" height="35.27"/><rect class="cls-3" x="738.49" y="982.53" width="35.27" height="35.27"/><rect class="cls-4" x="773.75" y="982.53" width="35.27" height="35.27"/><rect class="cls-4" x="809.02" y="982.53" width="35.27" height="35.27"/><rect class="cls-5" x="844.29" y="982.53" width="35.27" height="35.27"/><rect class="cls-3" x="879.56" y="982.53" width="35.27" height="35.27"/><rect class="cls-3" x="914.83" y="982.53" width="35.27" height="35.27"/><rect class="cls-4" x="950.09" y="982.53" width="35.27" height="35.27"/><rect class="cls-4" x="985.36" y="982.53" width="35.27" height="35.27"/><rect class="cls-5" x="1020.63" y="982.53" width="35.27" height="35.27"/><rect class="cls-3" x="1055.9" y="982.53" width="35.27" height="35.27"/><rect class="cls-3" x="1091.17" y="982.53" width="35.27" height="35.27"/><rect class="cls-4" x="1126.43" y="982.53" width="35.27" height="35.27"/><rect class="cls-4" x="1161.7" y="982.53" width="35.27" height="35.27"/><rect class="cls-5" x="1196.97" y="982.53" width="35.27" height="35.27"/></g><rect class="cls-6" y="42.39" width="1920" height="995.22"/><rect class="cls-7" y="42.39" width="1920" height="995.22"/><path d="M834.67,618a48.26,48.26,0,0,1-11.59,18.17,44.51,44.51,0,0,1-17.43,10.28,70.39,70.39,0,0,1-21.54,3.2H756V534.54h30.42a64.47,64.47,0,0,1,21,3.29A42.73,42.73,0,0,1,824,548.11a48.23,48.23,0,0,1,10.93,17.68q3.95,10.69,3.95,25.49Q838.87,606.9,834.67,618Zm-19-60.11q-10.36-11.67-30.26-11.67H768.81V638h16.94a51.33,51.33,0,0,0,16.77-2.55,31,31,0,0,0,12.66-8.14,37,37,0,0,0,8.06-14.39,70.33,70.33,0,0,0,2.8-21.13Q826,569.57,815.68,557.89Z"/><path d="M864.19,649.65V534.54h69.56v11.67H877V582.4h32.89v11.67H877V638h59.2v11.67Z"/><path d="M1006.27,649.65H992.13L953,534.54h13.49l25.65,78.77q.82,2.63,1.89,5.92t2.06,6.5c.66,2.14,1.26,4.14,1.81,6s1,3.29,1.32,4.28q.49-1.48,1.31-4.36t1.89-6.17q1.07-3.29,2.14-6.66c.71-2.24,1.34-4.19,1.89-5.83l25.82-78.44h13.16Z"/><path d="M1069.25,649.65V534.54h69.56v11.67h-56.73V582.4H1115v11.67h-32.89V638h59.2v11.67Z"/><path d="M1165.78,649.65V534.54h12.83V638h56.9v11.67Z"/><path d="M1343.39,615.86a57.33,57.33,0,0,1-9.78,18.83A45.26,45.26,0,0,1,1318.4,647a45.55,45.55,0,0,1-39.06.08,43.82,43.82,0,0,1-15-12.25,57.22,57.22,0,0,1-9.62-18.75,80,80,0,0,1-3.37-23.84,79.16,79.16,0,0,1,3.45-23.93,58.19,58.19,0,0,1,9.7-18.83,44.4,44.4,0,0,1,15.13-12.33,45.53,45.53,0,0,1,39.06-.08,43.78,43.78,0,0,1,15,12.25,58.33,58.33,0,0,1,9.7,18.74,78.19,78.19,0,0,1,3.46,23.84A79,79,0,0,1,1343.39,615.86Zm-12.08-43.25a49,49,0,0,0-7.48-15.13,33.53,33.53,0,0,0-11.18-9.7,29.63,29.63,0,0,0-14-3.37,28.8,28.8,0,0,0-13.73,3.37,32.9,32.9,0,0,0-10.93,9.54,47.51,47.51,0,0,0-7.24,15,68.34,68.34,0,0,0-2.63,19.65,66.58,66.58,0,0,0,2.71,19.65,50,50,0,0,0,7.4,15.13,32.71,32.71,0,0,0,11.1,9.7,29.58,29.58,0,0,0,14,3.37,29.22,29.22,0,0,0,13.81-3.37,32.57,32.57,0,0,0,11-9.54,47.56,47.56,0,0,0,7.24-15,68.48,68.48,0,0,0,2.63-19.65A66.6,66.6,0,0,0,1331.31,572.61Z"/><path d="M1449.05,584.12a31.33,31.33,0,0,1-8,11.18,33.76,33.76,0,0,1-12.33,6.83,51.87,51.87,0,0,1-15.79,2.3h-28v45.22h-12.83V534.54h43.09a49.3,49.3,0,0,1,14.55,2.05,31.79,31.79,0,0,1,11.59,6.33,29.35,29.35,0,0,1,7.73,10.77,42.17,42.17,0,0,1-.08,30.42Zm-16.2-31.9q-6.25-6-18.09-6H1385v46.54h28.12q26,0,26-23.35Q1439.1,558.23,1432.85,552.22Z"/><path d="M1473.8,649.65V534.54h69.56v11.67h-56.73V582.4h32.89v11.67h-32.89V638h59.2v11.67Z"/><path d="M1644.33,588.8q-7.4,8.22-19.73,10.85l25.32,50h-14.8l-24.67-49h-27.3v49h-12.83V534.54h45.56a49,49,0,0,1,14.14,2,31.29,31.29,0,0,1,11.35,6,28.74,28.74,0,0,1,7.56,10.11,34.39,34.39,0,0,1,2.8,14.47Q1651.73,580.58,1644.33,588.8Zm-11.43-37.26q-6-5.32-17.51-5.32h-32.23V589h30.59q12.83,0,19-5.33t6.17-16.14Q1638.91,556.87,1632.91,551.54Z"/><path d="M1268,441.61a9.17,9.17,0,0,1-5.22,5.14,11.12,11.12,0,0,1-7.84,0,9.16,9.16,0,0,1-5.22-5.14,11.22,11.22,0,0,1,0-8.09,9.16,9.16,0,0,1,5.22-5.14,11.18,11.18,0,0,1,7.84,0,9.17,9.17,0,0,1,5.22,5.14,11.22,11.22,0,0,1,0,8.09Zm-1.24-7.55a8.08,8.08,0,0,0-4.52-4.5,9.36,9.36,0,0,0-6.74,0,8.05,8.05,0,0,0-4.52,4.5,9.65,9.65,0,0,0,0,7,8.13,8.13,0,0,0,1.81,2.73,8.23,8.23,0,0,0,2.71,1.77,9.36,9.36,0,0,0,6.74,0,8.08,8.08,0,0,0,4.52-4.5,9.71,9.71,0,0,0,0-7Zm-4.19,3a3.39,3.39,0,0,1-1.84,1.07l2.44,4.68h-1.7l-2.36-4.58h-2.36v4.58h-1.45V431.92h4.44a4,4,0,0,1,2.49.77,2.8,2.8,0,0,1,1,2.38A3,3,0,0,1,1262.61,437.1Zm-1.32-3.43a2.39,2.39,0,0,0-1.59-.46h-2.9v3.7h2.74q2.3,0,2.3-1.84A1.73,1.73,0,0,0,1261.29,433.68Z"/><path d="M798,507.1l-12.5-25.88h-8.56V507.1H756V430.35H790.3c18,0,29.93,6.8,29.93,25,0,11.51-5.38,18.64-13.82,22.47l15.35,29.28Zm-8.22-59.43H776.92v16.78h12.5c6.91,0,9.65-3.07,9.65-8.55C799.07,451.08,796.44,447.68,789.75,447.68Z"/><path d="M834.48,507.1V430.35h58.77v17.87H855.53v10.2h22.7v17.65h-22.7v13.16H894V507.1Z"/><path d="M932.49,507.1H907.6V430.35h26.86c24.12,0,39.47,9.1,39.47,37.94S959.68,507.1,932.49,507.1Zm1.86-58.55h-5.26V488.9h4.61c13.27,0,18.42-5,18.42-20.28C952.12,454.47,947.62,448.55,934.35,448.55Z"/><path d="M1068.54,507.1V476.84h-23.9V507.1h-21.71V430.35h21.71v28h23.9v-28h21.71V507.1Z"/><path d="M1155.37,507.1l-4.17-13.49h-23L1124,507.1h-22.8l27.85-76.75h21.49l27.85,76.75Zm-10.74-35.42c-2.74-9.87-3.95-14-4.93-19.19-1,5.15-2.19,9.43-4.93,19.19l-1.43,5H1146Z"/><path d="M1218.52,448.88V507.1h-21.27V448.88h-21.49V430.35H1240v18.53Z"/><rect class="cls-8" x="403.45" y="430.33" width="35.28" height="35.28"/><rect class="cls-9" x="438.73" y="491.7" width="70.56" height="35.28"/><rect class="cls-10" x="403.45" y="614.38" width="70.56" height="35.28"/><rect class="cls-11" x="368.17" y="553.07" width="35.28" height="35.28"/><rect class="cls-8" x="464.89" y="430.33" width="70.56" height="35.28"/><rect class="cls-9" x="535.44" y="491.7" width="35.28" height="35.28"/><rect class="cls-10" x="500.16" y="614.38" width="35.28" height="35.28"/><rect class="cls-11" x="429.61" y="553.07" width="70.56" height="35.28"/><rect class="cls-12" x="535.44" y="430.33" width="105.83" height="35.28"/><rect class="cls-13" x="570.72" y="491.7" width="105.83" height="35.28"/><rect class="cls-14" x="535.44" y="614.38" width="70.56" height="35.28"/><rect class="cls-15" x="500.16" y="553.07" width="141.11" height="35.28"/></svg>