<svg id="Layer_1" data-name="Layer 1" xmlns="http://www.w3.org/2000/svg" viewBox="0 0 1920 1080"><defs><style>.cls-1{opacity:0.5;}.cls-2{fill:#878787;}.cls-3{fill:#a8a8a8;}.cls-4{fill:#b7b7b7;}.cls-5{fill:#d1d1d1;}.cls-6{fill:#e0e0e0;}</style></defs><title>RHD_universal_code_block</title><rect width="1920" height="1080"/><g class="cls-1"><rect class="cls-2" x="49.51" y="26.63" width="37.89" height="37.89"/><rect class="cls-2" x="238.98" y="26.63" width="37.89" height="37.89"/><rect class="cls-3" x="87.4" y="26.63" width="37.89" height="37.89"/><rect class="cls-4" x="125.29" y="26.63" width="37.89" height="37.89"/><rect class="cls-5" x="163.19" y="26.63" width="37.89" height="37.89"/><rect class="cls-6" x="201.08" y="26.63" width="37.89" height="37.89"/><rect class="cls-2" x="49.51" y="92.55" width="37.89" height="37.89"/><rect class="cls-3" x="87.4" y="92.55" width="37.89" height="37.89"/><rect class="cls-4" x="125.29" y="92.55" width="37.89" height="37.89"/><rect class="cls-5" x="163.19" y="92.55" width="37.89" height="37.89"/><rect class="cls-6" x="201.08" y="92.55" width="37.89" height="37.89"/><rect class="cls-2" x="238.98" y="92.55" width="37.89" height="37.89"/><rect class="cls-3" x="276.87" y="92.55" width="37.89" height="37.89"/><rect class="cls-4" x="314.76" y="92.55" width="37.89" height="37.89"/><rect class="cls-5" x="352.66" y="92.55" width="37.89" height="37.89"/><rect class="cls-6" x="390.55" y="92.55" width="37.89" height="37.89"/><rect class="cls-2" x="428.45" y="92.55" width="37.89" height="37.89"/><rect class="cls-3" x="466.34" y="92.55" width="37.89" height="37.89"/><rect class="cls-4" x="504.23" y="92.55" width="37.89" height="37.89"/><rect class="cls-5" x="542.13" y="92.55" width="37.89" height="37.89"/><rect class="cls-2" x="608.14" y="92.55" width="37.89" height="37.89"/><rect class="cls-3" x="646.03" y="92.55" width="37.89" height="37.89"/><rect class="cls-4" x="683.92" y="92.55" width="37.89" height="37.89"/><rect class="cls-5" x="721.82" y="92.55" width="37.89" height="37.89"/><rect class="cls-6" x="759.71" y="92.55" width="37.89" height="37.89"/><rect class="cls-2" x="797.61" y="92.55" width="37.89" height="37.89"/><rect class="cls-3" x="835.5" y="92.55" width="37.89" height="37.89"/><rect class="cls-4" x="873.39" y="92.55" width="37.89" height="37.89"/><rect class="cls-2" x="49.51" y="158.48" width="37.89" height="37.89"/><rect class="cls-3" x="87.4" y="158.48" width="37.89" height="37.89"/><rect class="cls-2" x="229.2" y="224.4" width="37.89" height="37.89"/><rect class="cls-3" x="267.09" y="224.4" width="37.89" height="37.89"/><rect class="cls-4" x="125.29" y="158.48" width="37.89" height="37.89"/><rect class="cls-5" x="163.19" y="158.48" width="37.89" height="37.89"/><rect class="cls-2" x="49.51" y="224.4" width="37.89" height="37.89"/><rect class="cls-3" x="87.4" y="224.4" width="37.89" height="37.89"/><rect class="cls-4" x="125.29" y="224.4" width="37.89" height="37.89"/><rect class="cls-5" x="163.19" y="224.4" width="37.89" height="37.89"/><rect class="cls-6" x="201.08" y="158.48" width="37.89" height="37.89"/><rect class="cls-2" x="49.51" y="356.25" width="37.89" height="37.89"/><rect class="cls-3" x="87.4" y="356.25" width="37.89" height="37.89"/><rect class="cls-4" x="125.29" y="356.25" width="37.89" height="37.89"/><rect class="cls-5" x="163.19" y="356.25" width="37.89" height="37.89"/><rect class="cls-6" x="201.08" y="356.25" width="37.89" height="37.89"/><rect class="cls-2" x="238.36" y="356.25" width="37.89" height="37.89"/><rect class="cls-3" x="276.26" y="356.25" width="37.89" height="37.89"/><rect class="cls-4" x="314.15" y="356.25" width="37.89" height="37.89"/><rect class="cls-5" x="352.04" y="356.25" width="37.89" height="37.89"/><rect class="cls-6" x="389.94" y="356.25" width="37.89" height="37.89"/><rect class="cls-2" x="427.22" y="356.25" width="37.89" height="37.89"/><rect class="cls-3" x="465.11" y="356.25" width="37.89" height="37.89"/><rect class="cls-4" x="503.01" y="356.25" width="37.89" height="37.89"/><rect class="cls-5" x="540.9" y="356.25" width="37.89" height="37.89"/><rect class="cls-6" x="578.8" y="356.25" width="37.89" height="37.89"/><rect class="cls-2" x="616.08" y="356.25" width="37.89" height="37.89"/><rect class="cls-3" x="653.97" y="356.25" width="37.89" height="37.89"/><rect class="cls-4" x="691.86" y="356.25" width="37.89" height="37.89"/><rect class="cls-5" x="729.76" y="356.25" width="37.89" height="37.89"/><rect class="cls-6" x="767.65" y="356.25" width="37.89" height="37.89"/><rect class="cls-2" x="49.51" y="422.17" width="37.89" height="37.89"/><rect class="cls-3" x="87.4" y="422.17" width="37.89" height="37.89"/><rect class="cls-2" x="238.99" y="422.17" width="37.89" height="37.89"/><rect class="cls-3" x="276.88" y="422.17" width="37.89" height="37.89"/><rect class="cls-4" x="125.29" y="422.17" width="37.89" height="37.89"/><rect class="cls-5" x="163.19" y="422.17" width="37.89" height="37.89"/><rect class="cls-6" x="201.08" y="422.17" width="37.89" height="37.89"/><rect class="cls-2" x="342.92" y="422.17" width="37.89" height="37.89"/><rect class="cls-3" x="380.81" y="422.17" width="37.89" height="37.89"/><rect class="cls-4" x="418.7" y="422.17" width="37.89" height="37.89"/><rect class="cls-5" x="456.6" y="422.17" width="37.89" height="37.89"/><rect class="cls-6" x="494.49" y="422.17" width="37.89" height="37.89"/><rect class="cls-2" x="532.35" y="422.17" width="37.89" height="37.89"/><rect class="cls-3" x="570.24" y="422.17" width="37.89" height="37.89"/><rect class="cls-4" x="608.14" y="422.17" width="37.89" height="37.89"/><rect class="cls-5" x="646.03" y="422.17" width="37.89" height="37.89"/><rect class="cls-6" x="683.92" y="422.17" width="37.89" height="37.89"/><rect class="cls-2" x="721.78" y="422.17" width="37.89" height="37.89"/><rect class="cls-2" x="911.9" y="422.17" width="37.89" height="37.89"/><rect class="cls-3" x="759.67" y="422.17" width="37.89" height="37.89"/><rect class="cls-4" x="797.57" y="422.17" width="37.89" height="37.89"/><rect class="cls-5" x="835.46" y="422.17" width="37.89" height="37.89"/><rect class="cls-6" x="873.36" y="422.17" width="37.89" height="37.89"/><rect class="cls-2" x="973.03" y="422.17" width="37.89" height="37.89"/><rect class="cls-3" x="1010.92" y="422.17" width="37.89" height="37.89"/><rect class="cls-4" x="1048.81" y="422.17" width="37.89" height="37.89"/><rect class="cls-5" x="1086.71" y="422.17" width="37.89" height="37.89"/><rect class="cls-6" x="1124.6" y="422.17" width="37.89" height="37.89"/><rect class="cls-2" x="1162.5" y="422.17" width="37.89" height="37.89"/><rect class="cls-3" x="1200.39" y="422.17" width="37.89" height="37.89"/><rect class="cls-4" x="1238.28" y="422.17" width="37.89" height="37.89"/><rect class="cls-5" x="1276.18" y="422.17" width="37.89" height="37.89"/><rect class="cls-6" x="1314.07" y="422.17" width="37.89" height="37.89"/><rect class="cls-2" x="1351.97" y="422.17" width="37.89" height="37.89"/><rect class="cls-3" x="1389.86" y="422.17" width="37.89" height="37.89"/><rect class="cls-4" x="1427.75" y="422.17" width="37.89" height="37.89"/><rect class="cls-2" x="49.51" y="488.1" width="37.89" height="37.89"/><rect class="cls-3" x="87.4" y="488.1" width="37.89" height="37.89"/><rect class="cls-4" x="125.29" y="488.1" width="37.89" height="37.89"/><rect class="cls-5" x="163.19" y="488.1" width="37.89" height="37.89"/><rect class="cls-2" x="239" y="488.1" width="37.89" height="37.89"/><rect class="cls-3" x="276.89" y="488.1" width="37.89" height="37.89"/><rect class="cls-4" x="314.79" y="488.1" width="37.89" height="37.89"/><rect class="cls-5" x="352.68" y="488.1" width="37.89" height="37.89"/><rect class="cls-6" x="201.08" y="488.1" width="37.89" height="37.89"/><rect class="cls-2" x="418.67" y="488.1" width="37.89" height="37.89"/><rect class="cls-3" x="456.56" y="488.1" width="37.89" height="37.89"/><rect class="cls-4" x="494.45" y="488.1" width="37.89" height="37.89"/><rect class="cls-5" x="532.35" y="488.1" width="37.89" height="37.89"/><rect class="cls-6" x="570.24" y="488.1" width="37.89" height="37.89"/><rect class="cls-2" x="608.14" y="488.1" width="37.89" height="37.89"/><rect class="cls-3" x="646.03" y="488.1" width="37.89" height="37.89"/><rect class="cls-4" x="683.92" y="488.1" width="37.89" height="37.89"/><rect class="cls-5" x="721.82" y="488.1" width="37.89" height="37.89"/><rect class="cls-6" x="759.71" y="488.1" width="37.89" height="37.89"/><rect class="cls-2" x="797.61" y="488.1" width="37.89" height="37.89"/><rect class="cls-3" x="835.5" y="488.1" width="37.89" height="37.89"/><rect class="cls-4" x="873.39" y="488.1" width="37.89" height="37.89"/><rect class="cls-5" x="911.29" y="488.1" width="37.89" height="37.89"/><rect class="cls-6" x="949.18" y="488.1" width="37.89" height="37.89"/><rect class="cls-2" x="987.08" y="488.1" width="37.89" height="37.89"/><rect class="cls-3" x="1024.97" y="488.1" width="37.89" height="37.89"/><rect class="cls-4" x="1062.86" y="488.1" width="37.89" height="37.89"/><rect class="cls-5" x="1100.76" y="488.1" width="37.89" height="37.89"/><rect class="cls-2" x="1205.27" y="488.1" width="37.89" height="37.89"/><rect class="cls-3" x="1243.17" y="488.1" width="37.89" height="37.89"/><rect class="cls-4" x="1281.06" y="488.1" width="37.89" height="37.89"/><rect class="cls-5" x="1318.96" y="488.1" width="37.89" height="37.89"/><rect class="cls-6" x="1138.65" y="488.1" width="37.89" height="37.89"/><rect class="cls-2" x="49.51" y="554.02" width="37.89" height="37.89"/><rect class="cls-2" x="238.36" y="554.02" width="37.89" height="37.89"/><rect class="cls-3" x="87.4" y="554.02" width="37.89" height="37.89"/><rect class="cls-4" x="125.29" y="554.02" width="37.89" height="37.89"/><rect class="cls-5" x="163.19" y="554.02" width="37.89" height="37.89"/><rect class="cls-6" x="201.08" y="554.02" width="37.89" height="37.89"/><rect class="cls-2" x="304.98" y="554.02" width="37.89" height="37.89"/><rect class="cls-3" x="342.88" y="554.02" width="37.89" height="37.89"/><rect class="cls-4" x="380.77" y="554.02" width="37.89" height="37.89"/><rect class="cls-5" x="418.67" y="554.02" width="37.89" height="37.89"/><rect class="cls-6" x="456.56" y="554.02" width="37.89" height="37.89"/><rect class="cls-2" x="494.45" y="554.02" width="37.89" height="37.89"/><rect class="cls-3" x="532.35" y="554.02" width="37.89" height="37.89"/><rect class="cls-4" x="570.24" y="554.02" width="37.89" height="37.89"/><rect class="cls-5" x="608.14" y="554.02" width="37.89" height="37.89"/><rect class="cls-6" x="646.03" y="554.02" width="37.89" height="37.89"/><rect class="cls-2" x="683.92" y="554.02" width="37.89" height="37.89"/><rect class="cls-3" x="721.82" y="554.02" width="37.89" height="37.89"/><rect class="cls-4" x="759.71" y="554.02" width="37.89" height="37.89"/><rect class="cls-5" x="797.61" y="554.02" width="37.89" height="37.89"/><rect class="cls-6" x="835.5" y="554.02" width="37.89" height="37.89"/><rect class="cls-2" x="873.39" y="554.02" width="37.89" height="37.89"/><rect class="cls-3" x="911.29" y="554.02" width="37.89" height="37.89"/><rect class="cls-4" x="949.18" y="554.02" width="37.89" height="37.89"/><rect class="cls-5" x="987.08" y="554.02" width="37.89" height="37.89"/><rect class="cls-6" x="1024.97" y="554.02" width="37.89" height="37.89"/><rect class="cls-2" x="1062.86" y="554.02" width="37.89" height="37.89"/><rect class="cls-3" x="1100.76" y="554.02" width="37.89" height="37.89"/><rect class="cls-4" x="1138.65" y="554.02" width="37.89" height="37.89"/><rect class="cls-5" x="1176.55" y="554.02" width="37.89" height="37.89"/><rect class="cls-6" x="1214.44" y="554.02" width="37.89" height="37.89"/><rect class="cls-2" x="1252.33" y="554.02" width="37.89" height="37.89"/><rect class="cls-3" x="1290.23" y="554.02" width="37.89" height="37.89"/><rect class="cls-4" x="1328.12" y="554.02" width="37.89" height="37.89"/><rect class="cls-5" x="1366.02" y="554.02" width="37.89" height="37.89"/><rect class="cls-6" x="1403.91" y="554.02" width="37.89" height="37.89"/><rect class="cls-2" x="1441.81" y="554.02" width="37.89" height="37.89"/><rect class="cls-3" x="1479.7" y="554.02" width="37.89" height="37.89"/><rect class="cls-4" x="1517.59" y="554.02" width="37.89" height="37.89"/><rect class="cls-5" x="1555.49" y="554.02" width="37.89" height="37.89"/><rect class="cls-6" x="1593.38" y="554.02" width="37.89" height="37.89"/><rect class="cls-2" x="1631.28" y="554.02" width="37.89" height="37.89"/><rect class="cls-3" x="1669.17" y="554.02" width="37.89" height="37.89"/><rect class="cls-2" x="49.51" y="619.94" width="37.89" height="37.89"/><rect class="cls-3" x="87.4" y="619.94" width="37.89" height="37.89"/><rect class="cls-4" x="125.29" y="619.94" width="37.89" height="37.89"/><rect class="cls-5" x="163.19" y="619.94" width="37.89" height="37.89"/><rect class="cls-6" x="201.08" y="619.94" width="37.89" height="37.89"/><rect class="cls-2" x="380.77" y="619.94" width="37.89" height="37.89"/><rect class="cls-3" x="418.67" y="619.94" width="37.89" height="37.89"/><rect class="cls-4" x="456.56" y="619.94" width="37.89" height="37.89"/><rect class="cls-5" x="494.45" y="619.94" width="37.89" height="37.89"/><rect class="cls-6" x="532.35" y="619.94" width="37.89" height="37.89"/><rect class="cls-2" x="570.2" y="619.94" width="37.89" height="37.89"/><rect class="cls-3" x="608.1" y="619.94" width="37.89" height="37.89"/><rect class="cls-4" x="645.99" y="619.94" width="37.89" height="37.89"/><rect class="cls-5" x="683.89" y="619.94" width="37.89" height="37.89"/><rect class="cls-6" x="721.78" y="619.94" width="37.89" height="37.89"/><rect class="cls-2" x="759.67" y="619.94" width="37.89" height="37.89"/><rect class="cls-3" x="797.57" y="619.94" width="37.89" height="37.89"/><rect class="cls-4" x="835.46" y="619.94" width="37.89" height="37.89"/><rect class="cls-5" x="873.36" y="619.94" width="37.89" height="37.89"/><rect class="cls-6" x="911.25" y="619.94" width="37.89" height="37.89"/><rect class="cls-2" x="949.14" y="619.94" width="37.89" height="37.89"/><rect class="cls-3" x="987.04" y="619.94" width="37.89" height="37.89"/><rect class="cls-4" x="1024.93" y="619.94" width="37.89" height="37.89"/><rect class="cls-2" x="239" y="619.94" width="37.89" height="37.89"/><rect class="cls-3" x="276.89" y="619.94" width="37.89" height="37.89"/><rect class="cls-4" x="314.79" y="619.94" width="37.89" height="37.89"/><rect class="cls-2" x="49.51" y="685.87" width="37.89" height="37.89"/><rect class="cls-3" x="87.4" y="685.87" width="37.89" height="37.89"/><rect class="cls-4" x="125.29" y="685.87" width="37.89" height="37.89"/><rect class="cls-5" x="163.19" y="685.87" width="37.89" height="37.89"/><rect class="cls-2" x="49.51" y="752.28" width="37.89" height="37.89"/><rect class="cls-3" x="87.4" y="752.28" width="37.89" height="37.89"/><rect class="cls-4" x="125.29" y="752.28" width="37.89" height="37.89"/><rect class="cls-5" x="163.19" y="752.28" width="37.89" height="37.89"/><rect class="cls-6" x="201.08" y="685.87" width="37.89" height="37.89"/><rect class="cls-2" x="239" y="685.87" width="37.89" height="37.89"/><rect class="cls-3" x="276.89" y="685.87" width="37.89" height="37.89"/><rect class="cls-4" x="314.79" y="685.87" width="37.89" height="37.89"/><rect class="cls-5" x="352.68" y="685.87" width="37.89" height="37.89"/><rect class="cls-6" x="390.58" y="685.87" width="37.89" height="37.89"/><rect class="cls-2" x="428.49" y="685.87" width="37.89" height="37.89"/><rect class="cls-3" x="466.39" y="685.87" width="37.89" height="37.89"/><rect class="cls-4" x="504.28" y="685.87" width="37.89" height="37.89"/><rect class="cls-5" x="542.17" y="685.87" width="37.89" height="37.89"/><rect class="cls-6" x="580.07" y="685.87" width="37.89" height="37.89"/><rect class="cls-2" x="617.99" y="685.87" width="37.89" height="37.89"/><rect class="cls-3" x="655.88" y="685.87" width="37.89" height="37.89"/><rect class="cls-4" x="693.77" y="685.87" width="37.89" height="37.89"/><rect class="cls-5" x="731.67" y="685.87" width="37.89" height="37.89"/><rect class="cls-6" x="769.56" y="685.87" width="37.89" height="37.89"/><rect class="cls-2" x="807.48" y="685.87" width="37.89" height="37.89"/><rect class="cls-3" x="845.37" y="685.87" width="37.89" height="37.89"/><rect class="cls-4" x="883.27" y="685.87" width="37.89" height="37.89"/><rect class="cls-5" x="921.16" y="685.87" width="37.89" height="37.89"/><rect class="cls-6" x="959.05" y="685.87" width="37.89" height="37.89"/><rect class="cls-2" x="996.97" y="685.87" width="37.89" height="37.89"/><rect class="cls-3" x="1034.87" y="685.87" width="37.89" height="37.89"/><rect class="cls-4" x="1072.76" y="685.87" width="37.89" height="37.89"/><rect class="cls-5" x="1110.65" y="685.87" width="37.89" height="37.89"/><rect class="cls-6" x="1148.55" y="685.87" width="37.89" height="37.89"/><rect class="cls-2" x="1186.47" y="685.87" width="37.89" height="37.89"/><rect class="cls-2" x="49.51" y="817.72" width="37.89" height="37.89"/><rect class="cls-3" x="87.4" y="817.72" width="37.89" height="37.89"/><rect class="cls-4" x="125.29" y="817.72" width="37.89" height="37.89"/><rect class="cls-5" x="163.19" y="817.72" width="37.89" height="37.89"/><rect class="cls-6" x="201.08" y="817.72" width="37.89" height="37.89"/><rect class="cls-2" x="239" y="817.72" width="37.89" height="37.89"/><rect class="cls-3" x="276.89" y="817.72" width="37.89" height="37.89"/><rect class="cls-2" x="532.42" y="817.72" width="37.89" height="37.89"/><rect class="cls-3" x="570.32" y="817.72" width="37.89" height="37.89"/><rect class="cls-4" x="314.79" y="817.72" width="37.89" height="37.89"/><rect class="cls-5" x="352.68" y="817.72" width="37.89" height="37.89"/><rect class="cls-6" x="390.58" y="817.72" width="37.89" height="37.89"/><rect class="cls-2" x="428.49" y="817.72" width="37.89" height="37.89"/><rect class="cls-3" x="466.39" y="817.72" width="37.89" height="37.89"/><rect class="cls-2" x="49.51" y="883.64" width="37.89" height="37.89"/><rect class="cls-3" x="87.4" y="883.64" width="37.89" height="37.89"/><rect class="cls-4" x="125.29" y="883.64" width="37.89" height="37.89"/><rect class="cls-5" x="163.19" y="883.64" width="37.89" height="37.89"/><rect class="cls-6" x="201.08" y="883.64" width="37.89" height="37.89"/><rect class="cls-2" x="49.51" y="1015" width="37.89" height="37.89"/><rect class="cls-3" x="87.4" y="1015" width="37.89" height="37.89"/><rect class="cls-4" x="125.29" y="1015" width="37.89" height="37.89"/><rect class="cls-5" x="163.19" y="1015" width="37.89" height="37.89"/><rect class="cls-6" x="201.08" y="1015" width="37.89" height="37.89"/><rect class="cls-2" x="267.09" y="1015" width="37.89" height="37.89"/><rect class="cls-3" x="304.98" y="1015" width="37.89" height="37.89"/><rect class="cls-4" x="342.88" y="1015" width="37.89" height="37.89"/><rect class="cls-5" x="380.77" y="1015" width="37.89" height="37.89"/><rect class="cls-6" x="418.67" y="1015" width="37.89" height="37.89"/><rect class="cls-2" x="599.04" y="1015" width="37.89" height="37.89"/><rect class="cls-3" x="636.93" y="1015" width="37.89" height="37.89"/><rect class="cls-4" x="674.83" y="1015" width="37.89" height="37.89"/><rect class="cls-5" x="712.72" y="1015" width="37.89" height="37.89"/><rect class="cls-6" x="750.61" y="1015" width="37.89" height="37.89"/><rect class="cls-2" x="788.53" y="1015" width="37.89" height="37.89"/><rect class="cls-3" x="826.43" y="1015" width="37.89" height="37.89"/><rect class="cls-4" x="864.32" y="1015" width="37.89" height="37.89"/><rect class="cls-5" x="902.21" y="1015" width="37.89" height="37.89"/><rect class="cls-6" x="940.11" y="1015" width="37.89" height="37.89"/><rect class="cls-2" x="978.02" y="1015" width="37.89" height="37.89"/><rect class="cls-3" x="1015.92" y="1015" width="37.89" height="37.89"/><rect class="cls-4" x="1053.81" y="1015" width="37.89" height="37.89"/><rect class="cls-5" x="1091.71" y="1015" width="37.89" height="37.89"/><rect class="cls-6" x="1129.6" y="1015" width="37.89" height="37.89"/><rect class="cls-2" x="456.64" y="1015" width="37.89" height="37.89"/><rect class="cls-3" x="494.53" y="1015" width="37.89" height="37.89"/><rect class="cls-4" x="532.42" y="1015" width="37.89" height="37.89"/><rect class="cls-2" x="239" y="883.64" width="37.89" height="37.89"/><rect class="cls-3" x="276.89" y="883.64" width="37.89" height="37.89"/><rect class="cls-4" x="314.79" y="883.64" width="37.89" height="37.89"/><rect class="cls-5" x="352.68" y="883.64" width="37.89" height="37.89"/><rect class="cls-6" x="390.58" y="883.64" width="37.89" height="37.89"/><rect class="cls-2" x="428.49" y="883.64" width="37.89" height="37.89"/><rect class="cls-3" x="466.39" y="883.64" width="37.89" height="37.89"/><rect class="cls-4" x="504.28" y="883.64" width="37.89" height="37.89"/><rect class="cls-5" x="542.17" y="883.64" width="37.89" height="37.89"/><rect class="cls-6" x="580.07" y="883.64" width="37.89" height="37.89"/><rect class="cls-2" x="798.22" y="883.64" width="37.89" height="37.89"/><rect class="cls-3" x="836.11" y="883.64" width="37.89" height="37.89"/><rect class="cls-4" x="874.01" y="883.64" width="37.89" height="37.89"/><rect class="cls-5" x="911.9" y="883.64" width="37.89" height="37.89"/><rect class="cls-2" x="617.99" y="883.64" width="37.89" height="37.89"/><rect class="cls-3" x="655.88" y="883.64" width="37.89" height="37.89"/><rect class="cls-4" x="693.77" y="883.64" width="37.89" height="37.89"/><rect class="cls-5" x="731.67" y="883.64" width="37.89" height="37.89"/><rect class="cls-2" x="333.71" y="224.4" width="37.89" height="37.89"/><rect class="cls-3" x="371.61" y="224.4" width="37.89" height="37.89"/><rect class="cls-4" x="409.5" y="224.4" width="37.89" height="37.89"/><rect class="cls-5" x="447.39" y="224.4" width="37.89" height="37.89"/><rect class="cls-6" x="485.29" y="224.4" width="37.89" height="37.89"/><rect class="cls-2" x="523.18" y="224.4" width="37.89" height="37.89"/><rect class="cls-3" x="561.08" y="224.4" width="37.89" height="37.89"/><rect class="cls-4" x="598.97" y="224.4" width="37.89" height="37.89"/><rect class="cls-5" x="636.86" y="224.4" width="37.89" height="37.89"/><rect class="cls-6" x="674.76" y="224.4" width="37.89" height="37.89"/><rect class="cls-2" x="712.65" y="224.4" width="37.89" height="37.89"/><rect class="cls-3" x="750.55" y="224.4" width="37.89" height="37.89"/><rect class="cls-4" x="788.44" y="224.4" width="37.89" height="37.89"/><rect class="cls-5" x="826.33" y="224.4" width="37.89" height="37.89"/><rect class="cls-6" x="864.23" y="224.4" width="37.89" height="37.89"/><rect class="cls-2" x="902.12" y="224.4" width="37.89" height="37.89"/><rect class="cls-3" x="940.02" y="224.4" width="37.89" height="37.89"/><rect class="cls-4" x="977.91" y="224.4" width="37.89" height="37.89"/><rect class="cls-5" x="1015.8" y="224.4" width="37.89" height="37.89"/><rect class="cls-6" x="1053.7" y="224.4" width="37.89" height="37.89"/><rect class="cls-2" x="1091.59" y="224.4" width="37.89" height="37.89"/><rect class="cls-3" x="1129.49" y="224.4" width="37.89" height="37.89"/><rect class="cls-4" x="1167.38" y="224.4" width="37.89" height="37.89"/><rect class="cls-5" x="1205.27" y="224.4" width="37.89" height="37.89"/><rect class="cls-6" x="1243.17" y="224.4" width="37.89" height="37.89"/><rect class="cls-2" x="1281.06" y="224.4" width="37.89" height="37.89"/><rect class="cls-3" x="1318.96" y="224.4" width="37.89" height="37.89"/><rect class="cls-2" x="238.98" y="158.48" width="37.89" height="37.89"/><rect class="cls-3" x="276.87" y="158.48" width="37.89" height="37.89"/><rect class="cls-4" x="314.76" y="158.48" width="37.89" height="37.89"/><rect class="cls-5" x="352.66" y="158.48" width="37.89" height="37.89"/><rect class="cls-6" x="390.55" y="158.48" width="37.89" height="37.89"/><rect class="cls-2" x="428.45" y="158.48" width="37.89" height="37.89"/><rect class="cls-3" x="466.34" y="158.48" width="37.89" height="37.89"/><rect class="cls-4" x="504.23" y="158.48" width="37.89" height="37.89"/><rect class="cls-5" x="542.13" y="158.48" width="37.89" height="37.89"/><rect class="cls-6" x="580.02" y="158.48" width="37.89" height="37.89"/><rect class="cls-2" x="617.92" y="158.48" width="37.89" height="37.89"/><rect class="cls-3" x="655.81" y="158.48" width="37.89" height="37.89"/><rect class="cls-4" x="693.7" y="158.48" width="37.89" height="37.89"/><rect class="cls-2" x="807.39" y="158.48" width="37.89" height="37.89"/><rect class="cls-3" x="845.28" y="158.48" width="37.89" height="37.89"/><rect class="cls-4" x="883.17" y="158.48" width="37.89" height="37.89"/><rect class="cls-5" x="731.6" y="158.48" width="37.89" height="37.89"/><rect class="cls-6" x="769.49" y="158.48" width="37.89" height="37.89"/><rect class="cls-2" x="949.18" y="158.48" width="37.89" height="37.89"/><rect class="cls-3" x="987.08" y="158.48" width="37.89" height="37.89"/><rect class="cls-4" x="1024.97" y="158.48" width="37.89" height="37.89"/><rect class="cls-5" x="1062.86" y="158.48" width="37.89" height="37.89"/><rect class="cls-6" x="1100.76" y="158.48" width="37.89" height="37.89"/><rect class="cls-2" x="1138.65" y="158.48" width="37.89" height="37.89"/><rect class="cls-3" x="1176.55" y="158.48" width="37.89" height="37.89"/><rect class="cls-4" x="1214.44" y="158.48" width="37.89" height="37.89"/><rect class="cls-5" x="911.29" y="92.55" width="37.89" height="37.89"/><rect class="cls-6" x="949.18" y="92.55" width="37.89" height="37.89"/><rect class="cls-2" x="987.08" y="92.55" width="37.89" height="37.89"/><rect class="cls-3" x="1024.97" y="92.55" width="37.89" height="37.89"/><rect class="cls-4" x="1062.86" y="92.55" width="37.89" height="37.89"/><rect class="cls-5" x="1100.76" y="92.55" width="37.89" height="37.89"/><rect class="cls-6" x="1138.65" y="92.55" width="37.89" height="37.89"/><rect class="cls-2" x="1205.27" y="92.55" width="37.89" height="37.89"/><rect class="cls-3" x="1243.17" y="92.55" width="37.89" height="37.89"/><rect class="cls-4" x="1281.06" y="92.55" width="37.89" height="37.89"/><rect class="cls-2" x="1394.74" y="92.55" width="37.89" height="37.89"/><rect class="cls-3" x="1432.64" y="92.55" width="37.89" height="37.89"/><rect class="cls-4" x="1470.53" y="92.55" width="37.89" height="37.89"/><rect class="cls-5" x="1318.96" y="92.55" width="37.89" height="37.89"/><rect class="cls-6" x="1356.85" y="92.55" width="37.89" height="37.89"/><rect class="cls-2" x="304.98" y="26.63" width="37.89" height="37.89"/><rect class="cls-3" x="342.88" y="26.63" width="37.89" height="37.89"/><rect class="cls-4" x="380.77" y="26.63" width="37.89" height="37.89"/><rect class="cls-5" x="418.67" y="26.63" width="37.89" height="37.89"/><rect class="cls-6" x="456.56" y="26.63" width="37.89" height="37.89"/><rect class="cls-2" x="497.06" y="26.63" width="37.89" height="37.89"/><rect class="cls-3" x="534.95" y="26.63" width="37.89" height="37.89"/><rect class="cls-4" x="572.85" y="26.63" width="37.89" height="37.89"/><rect class="cls-5" x="610.74" y="26.63" width="37.89" height="37.89"/><rect class="cls-6" x="648.63" y="26.63" width="37.89" height="37.89"/><rect class="cls-2" x="689.13" y="26.63" width="37.89" height="37.89"/><rect class="cls-3" x="727.03" y="26.63" width="37.89" height="37.89"/><rect class="cls-4" x="764.92" y="26.63" width="37.89" height="37.89"/><rect class="cls-5" x="802.81" y="26.63" width="37.89" height="37.89"/><rect class="cls-6" x="840.71" y="26.63" width="37.89" height="37.89"/><rect class="cls-2" x="881.2" y="26.63" width="37.89" height="37.89"/><rect class="cls-3" x="919.1" y="26.63" width="37.89" height="37.89"/><rect class="cls-4" x="956.99" y="26.63" width="37.89" height="37.89"/><rect class="cls-2" x="229.2" y="752.28" width="37.89" height="37.89"/><rect class="cls-3" x="267.09" y="752.28" width="37.89" height="37.89"/><rect class="cls-4" x="304.98" y="752.28" width="37.89" height="37.89"/><rect class="cls-5" x="342.88" y="752.28" width="37.89" height="37.89"/><rect class="cls-6" x="380.77" y="752.28" width="37.89" height="37.89"/><rect class="cls-2" x="418.67" y="752.28" width="37.89" height="37.89"/><rect class="cls-3" x="456.56" y="752.28" width="37.89" height="37.89"/><rect class="cls-4" x="494.45" y="752.28" width="37.89" height="37.89"/><rect class="cls-5" x="532.35" y="752.28" width="37.89" height="37.89"/><rect class="cls-6" x="570.24" y="752.28" width="37.89" height="37.89"/><rect class="cls-2" x="608.14" y="752.28" width="37.89" height="37.89"/><rect class="cls-3" x="646.03" y="752.28" width="37.89" height="37.89"/><rect class="cls-4" x="683.92" y="752.28" width="37.89" height="37.89"/><rect class="cls-5" x="721.82" y="752.28" width="37.89" height="37.89"/></g></svg>